<svg xmlns="http://www.w3.org/2000/svg" width="41.097" height="40" viewBox="0 0 41.097 40">
  <g id="Group_46" data-name="Group 46" transform="translate(-833.163 -1119.433)">
    <path id="Path_890" data-name="Path 890" d="M1164.216,1420.731h5.185a2.113,2.113,0,0,0,2.406-2.115,2.154,2.154,0,0,0-2.406-2.116h-5.185a.318.318,0,0,0-.316.3v3.637A.313.313,0,0,0,1164.216,1420.731Zm0,8.378h5.359c1.645,0,2.631-.839,2.631-2.309a2.344,2.344,0,0,0-2.631-2.309h-5.359a.318.318,0,0,0-.316.3v4.005A.316.316,0,0,0,1164.216,1429.109Z" transform="translate(-309.406 -278.635)" fill="#fff"/>
    <path id="Path_891" data-name="Path 891" d="M873.785,1119.519,858.448,1134.4h2.509c3.908,0,6.217,2.392,6.217,5a4.712,4.712,0,0,1-2.948,4.232.277.277,0,0,0,.026.528,4.846,4.846,0,0,1,3.025,4.572c0,2.964-2.038,5.338-6,5.338H850.418a.314.314,0,0,1-.316-.289v-11.266l-16.833,16.321a.347.347,0,0,0,.245.6h40.464a.269.269,0,0,0,.271-.264v-39.437C874.326,1119.475,873.978,1119.331,873.785,1119.519Z" transform="translate(0 0)" fill="#fff"/>
  </g>
</svg>
