<svg xmlns="http://www.w3.org/2000/svg" width="55.54" height="40" viewBox="0 0 55.54 40">
  <path id="Path_938" data-name="Path 938" d="M2116.327,3120.724c-.025-2.34-4.342-3.4-15.527-3.4-26.237,0-32.893-1.126-40.012-8.621,2.99,4.5,4.642,12.937,32.368,12.524,28.927-.45,11.286,7.457,6.143,16.39,9.259-8.271,16.991-13.713,17.029-16.866v-.025Zm-36.872,24.01a3.966,3.966,0,1,1-3.966-3.966A3.968,3.968,0,0,1,2079.455,3144.734Zm18.067,0a3.966,3.966,0,1,1-3.966-3.966A3.968,3.968,0,0,1,2097.522,3144.734Z" transform="translate(-2060.788 -3108.7)" fill="#fff"/>
</svg>
