<svg xmlns="http://www.w3.org/2000/svg" width="67.201" height="40" viewBox="0 0 67.201 40">
  <path id="Exclusion_1" data-name="Exclusion 1" d="M44.019,40h0c-1.514-.835-3.046-1.693-4.528-2.524h0c-2.394-1.342-4.869-2.729-7.331-4.05-2.629-.022-5.411-.032-9.02-.032-1.688,0-3.391,0-5.038,0s-3.353,0-5.052,0c-2.764,0-5.028-.006-7.125-.018a5.681,5.681,0,0,1-2.249-.537,6.289,6.289,0,0,1-1-.583,6.54,6.54,0,0,1-1.615-1.654A6.3,6.3,0,0,1,.5,29.6a5.7,5.7,0,0,1-.485-2.266C0,23.231,0,19.061,0,15.029c0-2.691,0-5.473,0-8.212A9.061,9.061,0,0,1,.09,5.292,5.9,5.9,0,0,1,.5,3.806,5.968,5.968,0,0,1,1.435,2.27,6.38,6.38,0,0,1,4.379.284,5.837,5.837,0,0,1,6.152,0c5.443,0,11.4,0,18.217,0L42.514,0h.072L60.812,0h.121A6.262,6.262,0,0,1,67.2,6.392c0,2.99,0,6.033,0,8.975h0c0,3.924,0,7.982-.008,11.972a5.684,5.684,0,0,1-.487,2.266,6.3,6.3,0,0,1-.561,1.015,6.555,6.555,0,0,1-1.619,1.654,6.31,6.31,0,0,1-1,.583,5.692,5.692,0,0,1-2.251.537c-2.075.01-4.322.014-7.072.014-1.628,0-3.283,0-4.884,0h-.12l-4.762,0-3.1,0c.443,1.093.9,2.2,1.335,3.274l.005.013c.443,1.082.9,2.2,1.349,3.308ZM17.473,17.587h0a39.318,39.318,0,0,0,2.281,6.1,24.777,24.777,0,0,0,1.6,2.827,19.736,19.736,0,0,0,2,2.562,4.29,4.29,0,0,0,.988.854,2.357,2.357,0,0,0,1.225.375,1.933,1.933,0,0,0,.415-.045,2.3,2.3,0,0,0,1.527-2.493,40.975,40.975,0,0,1,.164-5.986c.2-2.139.518-4.207.8-5.947.274-1.532.552-3.031.944-4.527a21.576,21.576,0,0,1,1.59-4.332A2.3,2.3,0,0,0,30.891,4.8a2.486,2.486,0,0,0-2.107-1.129,2.109,2.109,0,0,0-1.559.641A8.158,8.158,0,0,0,26.12,6.373v0c-.052.125-.107.255-.16.38a52.957,52.957,0,0,0-2.742,13.19,49.914,49.914,0,0,1-2.565-9.171A3.926,3.926,0,0,0,19.83,8.8a1.635,1.635,0,0,0-.6-.4,1.922,1.922,0,0,0-.708-.131,2.058,2.058,0,0,0-1.1.317,3.639,3.639,0,0,0-1.194,1.454c-.549,1.047-1.107,2.111-1.647,3.141l-.038.072,0,0c-1.394,2.661-2.836,5.413-4.264,8.113-1.03-4.184-1.9-8.738-2.731-14.332A2.788,2.788,0,0,0,6.817,5.28,2.166,2.166,0,0,0,5.384,4.8,3.413,3.413,0,0,0,4.2,5.021a2.332,2.332,0,0,0-1.236,2.69l.091.555A153.638,153.638,0,0,0,6.734,26.228c.092.264.179.542.262.811a6.135,6.135,0,0,0,1.555,2.969,1.135,1.135,0,0,0,.724.253,1.763,1.763,0,0,0,.817-.226,2.923,2.923,0,0,0,.692-.515,11.665,11.665,0,0,0,1.708-2.193c.5-.8.932-1.649,1.335-2.45,1.027-2.126,2.11-4.262,3.157-6.327h0l.488-.962ZM56.509,6.658a7.438,7.438,0,0,0-.91.056A6.81,6.81,0,0,0,51.767,8.6a14.212,14.212,0,0,0-3.22,13.834,7.3,7.3,0,0,0,2.929,3.874,7.009,7.009,0,0,0,1.77.752,7.28,7.28,0,0,0,1.912.256,6.56,6.56,0,0,0,3.38-.9,9.65,9.65,0,0,0,3.49-4,14.889,14.889,0,0,0,1.62-8.537,9.045,9.045,0,0,0-2.223-5.214A6.7,6.7,0,0,0,56.509,6.658ZM39.283,6.651a7.27,7.27,0,0,0-.872.052,6.252,6.252,0,0,0-1.858.532,7.056,7.056,0,0,0-1.632,1.046,12.967,12.967,0,0,0-3.566,5.832,14.986,14.986,0,0,0-.412,6.86,8,8,0,0,0,3.074,5.172,7.15,7.15,0,0,0,3.922,1.165,6.576,6.576,0,0,0,3.421-.926,9.627,9.627,0,0,0,3.417-3.895,14.949,14.949,0,0,0,1.631-8.849A9.014,9.014,0,0,0,44.32,8.78a5.922,5.922,0,0,0-1.054-.928,6.537,6.537,0,0,0-1.233-.666A7.308,7.308,0,0,0,39.283,6.651Zm15.66,15.944h-.071a2.123,2.123,0,0,1-1.631-1.34,6.96,6.96,0,0,1-.592-1.84,7.844,7.844,0,0,1-.093-1.926,8.8,8.8,0,0,1,1.122-3.68,10,10,0,0,1,.987-1.44,3.354,3.354,0,0,1,1.392-1.011,1.692,1.692,0,0,1,.571-.1,1.788,1.788,0,0,1,.811.2,1.7,1.7,0,0,1,.633.556,6.028,6.028,0,0,1,.936,2.276,7.415,7.415,0,0,1,.135,1.234,8.132,8.132,0,0,1-.063,1.237,10.159,10.159,0,0,1-.631,2.577,6.476,6.476,0,0,1-1.425,2.211,3.223,3.223,0,0,1-2.079,1.05h0Zm-17.193-.019h0a1.56,1.56,0,0,1-1.2-.555,3.319,3.319,0,0,1-.585-.913,7.05,7.05,0,0,1-.558-1.9,7.956,7.956,0,0,1-.04-1.976,8.841,8.841,0,0,1,1.272-3.727,8.607,8.607,0,0,1,.937-1.279,3.114,3.114,0,0,1,1.3-.882,1.662,1.662,0,0,1,.54-.089,1.776,1.776,0,0,1,1.454.754,6.15,6.15,0,0,1,.981,2.608,8.032,8.032,0,0,1,.076,1.407,9.183,9.183,0,0,1-.154,1.4,7.288,7.288,0,0,1-2.2,4.32A2.871,2.871,0,0,1,37.749,22.576Z" transform="translate(0 0)" fill="#fff"/>
</svg>
