<svg xmlns="http://www.w3.org/2000/svg" width="41.516" height="40.905" viewBox="0 0 41.516 40.905">
  <g id="Group_34" data-name="Group 34" transform="translate(-264.7 -1278.4)">
    <path id="Path_531" data-name="Path 531" d="M300.9,1319.305H270.016a5.317,5.317,0,0,1-5.316-5.316v-30.273a5.317,5.317,0,0,1,5.316-5.316H300.9a5.317,5.317,0,0,1,5.316,5.316v30.273A5.33,5.33,0,0,1,300.9,1319.305Z" fill="#fff"/>
    <rect id="Rectangle_31" data-name="Rectangle 31" width="2.978" height="2.424" transform="translate(280.037 1288.774)" fill="#d6d6d6"/>
    <rect id="Rectangle_32" data-name="Rectangle 32" width="2.978" height="2.424" transform="translate(284.322 1288.774)" fill="#d6d6d6"/>
    <rect id="Rectangle_33" data-name="Rectangle 33" width="2.978" height="2.424" transform="translate(288.512 1288.774)" fill="#d6d6d6"/>
    <rect id="Rectangle_34" data-name="Rectangle 34" width="2.978" height="2.424" transform="translate(280.037 1293.012)" fill="#d6d6d6"/>
    <rect id="Rectangle_35" data-name="Rectangle 35" width="2.978" height="2.424" transform="translate(284.322 1293.012)" fill="#d6d6d6"/>
    <rect id="Rectangle_36" data-name="Rectangle 36" width="2.978" height="2.424" transform="translate(288.512 1293.012)" fill="#d6d6d6"/>
    <circle id="Ellipse_1" data-name="Ellipse 1" cx="2.892" cy="2.892" r="2.892" transform="translate(273.986 1307.748)" fill="#d6d6d6"/>
    <circle id="Ellipse_2" data-name="Ellipse 2" cx="2.892" cy="2.892" r="2.892" transform="translate(293.78 1307.729)" fill="#d6d6d6"/>
    <path id="Path_532" data-name="Path 532" d="M364.479,1373v8.37l3.207,3.636h9.792l3.34-3.35V1373h2.873v10.9l-2.605,2.605v.391l2.93,2.94v6.356h-3.226v-4.772l-3.34-3.34h-9.658l-3.569,3.569v4.543h-3.274v-6.08l3.006-3.006v-.945l-3.054-3.054V1373Z" transform="translate(-87.019 -85.571)" fill="#a4194e"/>
  </g>
</svg>
