<svg id="google_analytics" xmlns="http://www.w3.org/2000/svg" width="94.55" height="35.183" viewBox="0 0 94.55 35.183">
  <g id="Group_1133" data-name="Group 1133" transform="translate(0 2.881)">
    <path id="Path_1144" data-name="Path 1144" d="M19.573,42.385H9.883A2.161,2.161,0,0,1,7.7,40.2V35.575a2.161,2.161,0,0,1,2.183-2.183h6.111v-6.81A2.161,2.161,0,0,1,18.176,24.4h6.81V42.3l-5.413.087Z" transform="translate(-7.7 -16.193)" fill="#fff" fill-rule="evenodd"/>
    <path id="Path_1145" data-name="Path 1145" d="M34.31,41.191H27.5V17.183A2.161,2.161,0,0,1,29.683,15H34.31a2.161,2.161,0,0,1,2.183,2.183V39.1A2.265,2.265,0,0,1,34.31,41.191Z" transform="translate(-10.214 -15)" fill="#fff" fill-rule="evenodd"/>
    <path id="Path_1146" data-name="Path 1146" d="M36.392,33.4v6.81A2.161,2.161,0,0,1,34.21,42.4H27.4V24.5Z" transform="translate(-10.201 -16.206)" fill="#fff" fill-rule="evenodd"/>
  </g>
  <g id="Group_1134" data-name="Group 1134" transform="translate(29.945 0)">
    <path id="Path_1147" data-name="Path 1147" d="M47.326,35.933l2.1,5.5H45.4l1.921-5.5ZM46.54,34.1,42,46.148h1.659l1.135-3.23h5.064l1.135,3.23h1.659l-4.54-11.961H46.54Zm24.62,12.048h1.571V34.1H71.159V46.148ZM55.1,39.076a3.3,3.3,0,0,1,2.619-1.4c2.1,0,3.143,1.4,3.143,3.492v5.064H59.286v-4.8c0-1.659-.873-2.357-2.1-2.357a2.391,2.391,0,0,0-2.183,2.445v4.54H53.437V37.767h1.571l.087,1.31Zm7.072,4.54c0-1.833,1.659-2.881,3.667-2.881a3.508,3.508,0,0,1,2.183.524V41a1.922,1.922,0,0,0-2.1-1.921A1.863,1.863,0,0,0,64,40.211L62.6,39.6c.262-.786,1.31-1.921,3.4-1.921a3.385,3.385,0,0,1,3.667,3.492v4.976H68.191V45.013h-.175a3.145,3.145,0,0,1-2.706,1.4,2.852,2.852,0,0,1-3.143-2.794m5.849-1.048a3.067,3.067,0,0,0-1.921-.524c-1.571,0-2.183.873-2.183,1.571,0,.873.873,1.31,1.659,1.31a2.545,2.545,0,0,0,2.445-2.357" transform="translate(-42 -14.544)" fill="#fff"/>
    <path id="Path_1148" data-name="Path 1148" d="M79.5,50.21l1.833-4.278-3.23-7.6h1.571L82.116,44.1l2.444-5.762h1.571L81.156,50.21Zm22.961-9.08a2.386,2.386,0,0,0-2.183-1.659,2.621,2.621,0,0,0-2.444,2.881,2.621,2.621,0,0,0,2.444,2.881,2.422,2.422,0,0,0,2.183-1.571l1.31.786a3.809,3.809,0,0,1-3.492,2.357,4.228,4.228,0,0,1-4.016-4.452,4.175,4.175,0,0,1,4.016-4.452,3.679,3.679,0,0,1,3.492,2.357l-1.31.873Z" transform="translate(-46.583 -15.026)" fill="#fff" fill-rule="evenodd"/>
    <path id="Path_1149" data-name="Path 1149" d="M110.242,46.918c2.1,0,3.143-1.135,3.143-2.619,0-3.143-4.54-1.921-4.54-3.754,0-.611.524-1.048,1.4-1.048a2.437,2.437,0,0,1,2.183,1.048l.873-.873a4.945,4.945,0,0,0-3.23-1.571c-1.921,0-2.968,1.135-2.968,2.619,0,2.968,4.714,1.921,4.714,3.492,0,.786-.524,1.31-1.571,1.31a2.5,2.5,0,0,1-2.1-1.31l-1.135.96c.786.7,1.921,1.746,3.23,1.746ZM95.4,46.656h1.571V38.275H95.4Z" transform="translate(-48.78 -15.052)" fill="#fff"/>
    <path id="Path_1150" data-name="Path 1150" d="M95.146,33.7a1.048,1.048,0,0,1,0,2.1,1.048,1.048,0,0,1,0-2.1Zm-2.27,11.088.262,1.135H91.567c-1.4,0-2.1-1.048-2.1-2.619V39.287H87.9V37.716h1.571V35.271h1.571v2.445h1.833v1.571H91.043v4.278c0,1.222.96,1.222,1.833,1.222Z" transform="translate(-47.828 -14.493)" fill="#fff" fill-rule="evenodd"/>
    <path id="Path_1151" data-name="Path 1151" d="M49.972,18.073v1.921h4.54a4.232,4.232,0,0,1-1.048,2.357,4.669,4.669,0,0,1-3.492,1.4A4.994,4.994,0,0,1,45,18.684a5.049,5.049,0,0,1,4.976-5.064,4.882,4.882,0,0,1,3.4,1.31l1.31-1.31A6.7,6.7,0,0,0,49.972,11.7,7.122,7.122,0,0,0,42.9,18.6a7.064,7.064,0,0,0,7.072,6.9,5.946,5.946,0,0,0,4.8-1.921,6.072,6.072,0,0,0,1.659-4.452,2.4,2.4,0,0,0-.175-1.135H49.972ZM61.583,16.5a4.362,4.362,0,0,0-4.452,4.452,4.311,4.311,0,0,0,4.452,4.452,4.4,4.4,0,0,0,4.452-4.365v-.087A4.262,4.262,0,0,0,61.583,16.5Zm0,7.159a2.563,2.563,0,0,1-2.445-2.706,2.563,2.563,0,0,1,2.445-2.706,2.511,2.511,0,0,1,2.445,2.706,2.511,2.511,0,0,1-2.445,2.706Zm21.389-6.286a3.37,3.37,0,0,0-2.444-1.048,4.367,4.367,0,0,0-4.191,4.452,4.31,4.31,0,0,0,4.191,4.452,3.159,3.159,0,0,0,2.357-1.048h.175V24.8c0,1.659-.873,2.619-2.357,2.619a2.428,2.428,0,0,1-2.183-1.571l-1.659.611a4.393,4.393,0,0,0,3.929,2.619c2.357,0,4.278-1.31,4.278-4.714V16.327H83.234v1.048ZM80.79,23.661a2.5,2.5,0,0,1-2.357-2.706,2.38,2.38,0,1,1,4.714,0A2.612,2.612,0,0,1,80.79,23.661ZM71.274,16.5a4.362,4.362,0,0,0-4.452,4.452,4.311,4.311,0,0,0,4.452,4.452,4.4,4.4,0,0,0,4.452-4.365v-.087A4.311,4.311,0,0,0,71.274,16.5Zm0,7.159a2.563,2.563,0,0,1-2.444-2.706,2.563,2.563,0,0,1,2.444-2.706,2.511,2.511,0,0,1,2.445,2.706A2.511,2.511,0,0,1,71.274,23.661Zm15.1-11.873H88.3V25.319H86.377Zm7.333,11.873a2.466,2.466,0,0,1-2.183-1.31l6.024-2.444-.262-.524A4.145,4.145,0,0,0,93.536,16.5a4.2,4.2,0,0,0-4.191,4.452,4.4,4.4,0,0,0,4.365,4.452H93.8a4.773,4.773,0,0,0,3.754-1.921l-1.571-1.048a2.985,2.985,0,0,1-2.27,1.222Zm-.175-5.5a1.637,1.637,0,0,1,1.659,1.048l-4.016,1.659A2.441,2.441,0,0,1,93.536,18.16Z" transform="translate(-42.114 -11.7)" fill="#fff"/>
  </g>
</svg>
