<svg id="callrail_agency" data-name="callrail agency" xmlns="http://www.w3.org/2000/svg" width="98.045" height="35.183" viewBox="0 0 98.045 35.183">
  <g id="Group_1131" data-name="Group 1131" transform="translate(15.961 0.725)">
    <path id="Path_1135" data-name="Path 1135" d="M380.043,321.953a1.471,1.471,0,0,1,1,.4c2.568,2.02-2.892,4.339-4.214,4.638a9.8,9.8,0,0,1-8.328-1.9A9.968,9.968,0,0,1,366.4,312.7a9.137,9.137,0,0,1,1.945-2.294,10.022,10.022,0,0,1,12.617.025,1.087,1.087,0,0,1,.324.349,1.157,1.157,0,0,1,.1.524c.025,1.371-.623,2.369-2.194,1.82-1.7-.6-2.843-1.72-4.738-1.72-3.491.05-5.785,3.017-5.885,6.309a6.243,6.243,0,0,0,6.259,6.383,7.028,7.028,0,0,0,4.289-1.72A1.768,1.768,0,0,1,380.043,321.953Z" transform="translate(-365.109 -307.652)" fill="#fff"/>
    <path id="Path_1136" data-name="Path 1136" d="M435.249,335.719a4.146,4.146,0,0,1,.3-.773,5.153,5.153,0,0,1,3.99-2.469,15.073,15.073,0,0,1,4.837.374,2.629,2.629,0,0,0-1.721-2.917,5.541,5.541,0,0,0-3.641.124c-.823.249-1.82.549-2.419-.025a1.493,1.493,0,0,1,.174-2.07,3.993,3.993,0,0,1,2.145-.848,11.95,11.95,0,0,1,4.513-.075,5.394,5.394,0,0,1,3.616,2.493,8.3,8.3,0,0,1,.648,4.139c-.025,1.7-.05,3.416-.075,5.112-.025,1.3-.224,2.842-2.07,2.244a1.812,1.812,0,0,1-1.222-1.5,6.092,6.092,0,0,1-6.533,1.371A4.749,4.749,0,0,1,435.249,335.719Zm3.341,1.92c.025.05.05.075.075.125a2.3,2.3,0,0,0,1.845.948c1.9.15,3.915-.848,4.164-2.892a.9.9,0,0,0-.1-.623.984.984,0,0,0-.623-.3,13.372,13.372,0,0,0-2.992-.274,3.133,3.133,0,0,0-1.9.549,2.083,2.083,0,0,0-.673,1.446A2.413,2.413,0,0,0,438.59,337.639Z" transform="translate(-417.672 -321.667)" fill="#fff"/>
    <path id="Path_1137" data-name="Path 1137" d="M554.656,320.245a1.725,1.725,0,0,0-.8-.1c-1.671,0-3.341.025-5.012.025v6.059c0,.673-.249,1.6-.923,1.546-.549-.274-.623-1.022-.623-1.621V310.67c0-.5.05-1.072.474-1.322a1.433,1.433,0,0,1,.648-.125,36.684,36.684,0,0,1,8.1.2,7.52,7.52,0,0,1,3.142,1.172,4.972,4.972,0,0,1,1.97,4.015,5.268,5.268,0,0,1-2.094,3.99,10.656,10.656,0,0,1-3.117,1.4c1.621,2.07,3.242,4.164,4.862,6.234.474.6.574,1.421-.324,1.372-.673-.05-1.347-.972-1.721-1.471-1.346-1.77-2.668-3.541-4.014-5.311a1.919,1.919,0,0,0-.549-.549A.024.024,0,0,0,554.656,320.245Zm4.937-7.53a3.585,3.585,0,0,0-.8-.948c-1.346-1.147-3.291-1.2-5.087-1.172-1.621.025-3.241.025-4.837.05-.025,2.643-.025,5.261,0,7.9,3.291.2,10.348,1.346,11.2-3.267A3.862,3.862,0,0,0,559.593,312.714Z" transform="translate(-501.871 -308.338)" fill="#fff"/>
    <path id="Path_1138" data-name="Path 1138" d="M497.3,325.435a1.592,1.592,0,0,1-1.446-.524,3.055,3.055,0,0,1-.449-1.945V308.454a3.583,3.583,0,0,1,.175-1.371,1.7,1.7,0,0,1,1.3-1.022,1.552,1.552,0,0,1,1.5.673,2.784,2.784,0,0,1,.3,1.571v14.986c0,.773-.05,1.5-.7,1.92A2.383,2.383,0,0,1,497.3,325.435Z" transform="translate(-462.912 -306.048)" fill="#fff"/>
    <path id="Path_1139" data-name="Path 1139" d="M523.267,324.358c-.5,1.072-1.671,1.845-2.568.424a3.854,3.854,0,0,1-.4-2.12V308.45a3.235,3.235,0,0,1,.349-1.771,1.619,1.619,0,0,1,2.543.025,3.049,3.049,0,0,1,.324,1.7c0,4.962,0,9.924-.025,14.886A1.783,1.783,0,0,1,523.267,324.358Z" transform="translate(-481.603 -306.068)" fill="#fff"/>
    <path id="Path_1140" data-name="Path 1140" d="M618.583,334.255a5.778,5.778,0,0,0-1.022-3.366,3.917,3.917,0,0,0-2.718-1.2,12.315,12.315,0,0,0-3.017.349c-.748.15-1.471.3-2.219.449a.991.991,0,0,1,.175-1.147,2.58,2.58,0,0,1,1.1-.574,9.289,9.289,0,0,1,5.137-.349,4.85,4.85,0,0,1,3.565,3.441,7.545,7.545,0,0,1,.1,1.5c0,2.568,0,5.137.025,7.7,0,2.369-2.094-.174-1.172-1a8.4,8.4,0,0,1-4.613,2.194,5.463,5.463,0,0,1-4.688-1.721,4.1,4.1,0,0,1-.424-4.812,5.768,5.768,0,0,1,4.464-2.07A14.651,14.651,0,0,1,618.583,334.255ZM609.856,337c-.025.025-.025.075-.05.1a3.049,3.049,0,0,0,1.77,3.491c3.142,1.446,7.73-1.047,6.832-4.812a.477.477,0,0,0-.125-.249.444.444,0,0,0-.25-.1,13.748,13.748,0,0,0-4.264-.474,6.244,6.244,0,0,0-2.344.474A3.023,3.023,0,0,0,609.856,337Z" transform="translate(-547.595 -322.672)" fill="#fff"/>
    <path id="Path_1141" data-name="Path 1141" d="M689.65,306.674a.556.556,0,0,1,.5-.374c.424.025.549.6.549,1.022v17.4c0,1.3-1.2,1.072-1.2-.15V307.372A2.191,2.191,0,0,1,689.65,306.674Z" transform="translate(-608.613 -306.237)" fill="#fff"/>
    <path id="Path_1142" data-name="Path 1142" d="M668.68,329.393a.663.663,0,0,1,.549-.5.744.744,0,0,1,.673.474,1.949,1.949,0,0,1,.125.848c0,3.616.025,7.231.025,10.847a2.614,2.614,0,0,1-.125,1c-.623,1.446-1.346-.125-1.346-.9V330.141A2,2,0,0,1,668.68,329.393Z" transform="translate(-592.905 -323.196)" fill="#fff"/>
    <path id="Path_1143" data-name="Path 1143" d="M669.014,308.624a.79.79,0,0,1,.05.349c.075,1.122-1.247,1.995-1.721.673a1.13,1.13,0,0,1,.748-1.371.759.759,0,0,1,.9.274C668.989,308.574,669.014,308.6,669.014,308.624Z" transform="translate(-591.942 -307.688)" fill="#fff"/>
  </g>
  <path id="Path_1173" data-name="Path 1173" d="M5.16-23.318,5.9-21.127h.961L4.488-28.093H3.413L1.036-21.127h.93l.723-2.191Zm-2.284-.7.682-2.015c.145-.424.248-.858.351-1.261H3.93c.1.4.207.816.362,1.271l.692,2.005Zm9.137-.744c0-.6.01-1.013.041-1.364h-.806l-.031.754H11.2a1.67,1.67,0,0,0-1.561-.858,2.392,2.392,0,0,0-2.263,2.646A2.236,2.236,0,0,0,9.5-21.147a1.773,1.773,0,0,0,1.592-.837h.021v.548c0,1.271-.682,1.757-1.612,1.757a2.723,2.723,0,0,1-1.468-.4l-.227.7a3.229,3.229,0,0,0,1.664.413,2.748,2.748,0,0,0,1.829-.6,2.941,2.941,0,0,0,.713-2.294Zm-.91,1.509a1.582,1.582,0,0,1-.072.486,1.311,1.311,0,0,1-1.261.93c-.972,0-1.478-.817-1.478-1.8,0-1.158.62-1.891,1.488-1.891a1.3,1.3,0,0,1,1.271.972,1.193,1.193,0,0,1,.052.4Zm6.429-.207a2.217,2.217,0,0,0,.031-.424A2.1,2.1,0,0,0,15.5-26.232a2.419,2.419,0,0,0-2.346,2.687,2.331,2.331,0,0,0,2.46,2.532,4.075,4.075,0,0,0,1.674-.32l-.165-.651a3.254,3.254,0,0,1-1.385.258,1.6,1.6,0,0,1-1.716-1.736Zm-3.5-.651a1.49,1.49,0,0,1,1.4-1.468,1.291,1.291,0,0,1,1.261,1.468Zm4.661,2.987h.91v-3.008a1.308,1.308,0,0,1,.062-.424,1.312,1.312,0,0,1,1.22-.93c.858,0,1.158.672,1.158,1.478v2.884h.91V-24.1c0-1.716-1.075-2.129-1.767-2.129a1.853,1.853,0,0,0-1.654.93h-.021l-.052-.827h-.806c.031.413.041.827.041,1.354Zm9.147-.858a2.6,2.6,0,0,1-1.116.238,1.715,1.715,0,0,1-1.736-1.871,1.736,1.736,0,0,1,1.767-1.891,2.227,2.227,0,0,1,1.054.238l.207-.692a2.864,2.864,0,0,0-1.261-.269,2.55,2.55,0,0,0-2.687,2.667,2.377,2.377,0,0,0,2.491,2.553,3.516,3.516,0,0,0,1.437-.289Zm.744-4.145,1.84,4.61a.629.629,0,0,1,.072.238.653.653,0,0,1-.072.217,2.874,2.874,0,0,1-.765,1.013,2.406,2.406,0,0,1-.8.444l.227.754a2.579,2.579,0,0,0,1.116-.579,7.691,7.691,0,0,0,1.716-3.132l1.364-3.566h-.961l-.992,2.935c-.124.362-.227.744-.32,1.044h-.021c-.083-.3-.207-.692-.331-1.023l-1.085-2.956Zm7.752,5h.9v-2.791a3.094,3.094,0,0,0,.723.062,2.9,2.9,0,0,0,2.129-.765,2.051,2.051,0,0,0,.537-1.488,1.908,1.908,0,0,0-.61-1.457,2.862,2.862,0,0,0-1.953-.579,10.423,10.423,0,0,0-1.726.134Zm.9-6.232a3.774,3.774,0,0,1,.848-.072c.982,0,1.643.444,1.643,1.375s-.661,1.478-1.747,1.478a3.016,3.016,0,0,1-.744-.072ZM45.045-24.2c0-.992-.372-2.036-1.9-2.036a3.239,3.239,0,0,0-1.654.434l.207.61a2.411,2.411,0,0,1,1.313-.372,1.024,1.024,0,0,1,1.137,1.147v.1c-1.933-.01-3.008.651-3.008,1.86a1.425,1.425,0,0,0,1.53,1.437,1.863,1.863,0,0,0,1.53-.744h.031l.072.63h.817a8.394,8.394,0,0,1-.072-1.2Zm-.879,1.385a1.027,1.027,0,0,1-.041.289,1.263,1.263,0,0,1-1.23.837.8.8,0,0,1-.848-.868c0-.972,1.127-1.147,2.119-1.127Zm2.346,1.685h.91v-2.667a2.722,2.722,0,0,1,.031-.424,1.266,1.266,0,0,1,1.22-1.158,1.416,1.416,0,0,1,.31.021v-.858a1.85,1.85,0,0,0-.248-.021,1.513,1.513,0,0,0-1.4,1.1h-.031l-.041-.992h-.8c.031.465.041.972.041,1.561Zm3.834-5.933v.93h-.775v.692h.775v2.729A1.954,1.954,0,0,0,50.7-21.4a1.3,1.3,0,0,0,.982.382,2.48,2.48,0,0,0,.806-.124l-.041-.692a1.7,1.7,0,0,1-.527.062c-.506,0-.682-.351-.682-.972v-2.7h1.3v-.692h-1.3v-1.2Zm3.214,5.933h.91v-3.008a1.308,1.308,0,0,1,.062-.424,1.312,1.312,0,0,1,1.22-.93c.858,0,1.158.672,1.158,1.478v2.884h.91V-24.1c0-1.716-1.075-2.129-1.767-2.129a1.853,1.853,0,0,0-1.654.93h-.021l-.052-.827H53.52c.031.413.041.827.041,1.354Zm9.757-2.336a2.218,2.218,0,0,0,.031-.424,2.1,2.1,0,0,0-2.067-2.346,2.419,2.419,0,0,0-2.346,2.687,2.331,2.331,0,0,0,2.46,2.532,4.075,4.075,0,0,0,1.674-.32l-.165-.651a3.254,3.254,0,0,1-1.385.258A1.6,1.6,0,0,1,59.8-23.463Zm-3.5-.651a1.49,1.49,0,0,1,1.4-1.468,1.291,1.291,0,0,1,1.261,1.468Zm4.661,2.987h.91v-2.667a2.721,2.721,0,0,1,.031-.424,1.266,1.266,0,0,1,1.22-1.158,1.416,1.416,0,0,1,.31.021v-.858a1.85,1.85,0,0,0-.248-.021,1.513,1.513,0,0,0-1.4,1.1h-.031l-.041-.992h-.8c.031.465.041.972.041,1.561Z" transform="translate(18.799 53.951)" fill="#fff"/>
  <g id="Group_1132" data-name="Group 1132" transform="translate(0 0)">
    <rect id="Rectangle_52" data-name="Rectangle 52" width="12.792" height="35.183" fill="#fff"/>
    <path id="Path_1174" data-name="Path 1174" d="M0,3.789H.843V2.439a1.46,1.46,0,0,0,.29.022,1.771,1.771,0,0,0,1.222-.4A1.172,1.172,0,0,0,2.7,1.172,1.083,1.083,0,0,0,2.3.3,1.8,1.8,0,0,0,1.15,0,6.962,6.962,0,0,0,0,.078ZM.843.675A1.517,1.517,0,0,1,1.189.647c.43,0,.67.206.67.552,0,.379-.279.608-.731.608a1.268,1.268,0,0,1-.285-.022ZM3.248,3.789H5.592V3.075H4.1V.028H3.248ZM8.08,2.824l.29.965h.921L8.12.028H7L5.859,3.789h.876L7,2.824Zm-.954-.636.223-.8c.061-.218.117-.5.173-.725h.011c.056.223.123.5.19.725l.234.8Zm2.93,1.6H10.9V.742h1.027V.028H9.04V.742h1.016ZM12.389.028V3.789h.848V.028Zm2.366,3.761V2.656c0-.614-.011-1.144-.039-1.646h.022a12.751,12.751,0,0,0,.653,1.328l.8,1.451h.893V.028h-.781V1.122A15.52,15.52,0,0,0,16.373,2.7h-.011a11.861,11.861,0,0,0-.614-1.289L14.967.028h-.993V3.789ZM17.83.028V3.789h.848V.028Zm1.585,0v2.1c0,1.194.552,1.724,1.5,1.724.982,0,1.568-.552,1.568-1.713V.028h-.848v2.16c0,.67-.246.982-.692.982-.43,0-.681-.329-.681-.982V.028Zm7.048,3.761h.826l-.2-3.761H25.971l-.4,1.25c-.128.419-.257.915-.357,1.35H25.2c-.084-.441-.2-.91-.318-1.345L24.509.028H23.377l-.24,3.761h.787L24,2.361c.022-.469.045-1.049.061-1.557h.011c.095.491.218,1.027.34,1.473l.4,1.451h.664l.458-1.468c.145-.441.3-.977.424-1.456h.011c0,.547.017,1.094.033,1.546Z" transform="translate(4.488 31.029) rotate(-90)"/>
  </g>
</svg>
