<svg id="Group_1148" data-name="Group 1148" xmlns="http://www.w3.org/2000/svg" width="129.182" height="35.183" viewBox="0 0 129.182 35.183">
  <g id="Group_1130" data-name="Group 1130" transform="translate(0)">
    <path id="Path_1131" data-name="Path 1131" d="M-819.6-534.4v6.792h9.474a8.179,8.179,0,0,1-3.545,5.3l5.69,4.439a17.12,17.12,0,0,0,5.243-12.929,20.292,20.292,0,0,0-.328-3.6Z" transform="translate(837.177 548.789)" fill="#fff"/>
    <path id="Path_1132" data-name="Path 1132" d="M-866.461-512.4l-1.281.983-4.558,3.545h0a17.561,17.561,0,0,0,15.7,9.712,16.745,16.745,0,0,0,11.619-4.26l-5.69-4.439a10.624,10.624,0,0,1-5.929,1.7,10.528,10.528,0,0,1-9.861-7.239Z" transform="translate(874.177 533.343)" fill="#fff"/>
    <path id="Path_1133" data-name="Path 1133" d="M-876.723-550.1a17.4,17.4,0,0,0-1.877,7.865,17.4,17.4,0,0,0,1.877,7.865c0,.03,5.839-4.529,5.839-4.529a10.31,10.31,0,0,1-.566-3.337,10.313,10.313,0,0,1,.566-3.336Z" transform="translate(878.6 559.812)" fill="#fff"/>
    <path id="Path_1134" data-name="Path 1134" d="M-856.6-575.7a9.607,9.607,0,0,1,6.733,2.622l5.035-5.035A16.884,16.884,0,0,0-856.6-582.7a17.507,17.507,0,0,0-15.7,9.712l5.839,4.528A10.528,10.528,0,0,1-856.6-575.7Z" transform="translate(874.177 582.7)" fill="#fff"/>
  </g>
  <g id="Group_1147" data-name="Group 1147" transform="translate(38.383 4.572)">
    <path id="Path_1177" data-name="Path 1177" d="M2.25-9.893H3.557v-4.058a4.5,4.5,0,0,0,1.052.09,4.221,4.221,0,0,0,3.1-1.112,2.982,2.982,0,0,0,.782-2.164A2.775,2.775,0,0,0,7.6-19.257,4.162,4.162,0,0,0,4.76-20.1a15.156,15.156,0,0,0-2.51.2Zm1.308-9.063a5.488,5.488,0,0,1,1.232-.105c1.428,0,2.39.646,2.39,2,0,1.368-.962,2.149-2.54,2.149a4.385,4.385,0,0,1-1.082-.105Zm6.688,9.063h1.308v-4.389h1.232c1.187.045,1.743.571,2.044,1.969a12.7,12.7,0,0,0,.661,2.42h1.353a16.123,16.123,0,0,1-.782-2.781,2.54,2.54,0,0,0-1.473-2.044v-.045a2.66,2.66,0,0,0,1.894-2.57,2.587,2.587,0,0,0-.8-1.939,4.191,4.191,0,0,0-2.931-.827,15.216,15.216,0,0,0-2.51.21Zm1.308-9.078a5.735,5.735,0,0,1,1.293-.105c1.383,0,2.33.571,2.33,1.879,0,1.157-.887,1.924-2.285,1.924H11.553Zm12.009,3.246H19.639v-3.2H23.8v-1.1H18.317v10.13h5.711v-1.1H19.639v-3.652h3.923ZM34.5-9.893H35.8l-.631-10.13H33.5l-1.8,4.9c-.451,1.278-.812,2.39-1.082,3.412h-.03c-.271-1.052-.6-2.164-1.022-3.412l-1.728-4.9H26.162l-.706,10.13H26.7l.271-4.344c.09-1.533.165-3.216.2-4.479h.03c.286,1.2.676,2.495,1.157,3.938L30.01-9.953H31l1.789-4.915c.511-1.4.917-2.675,1.278-3.848h.03c0,1.247.09,2.961.165,4.374ZM37.8-20.023v10.13h1.323v-10.13Zm8.838,4.3H42.71v-3.2h4.163v-1.1H41.388v10.13H47.1v-1.1H42.71v-3.652h3.923ZM48.8-9.893H50.1v-4.389h1.232c1.187.045,1.743.571,2.044,1.969a12.7,12.7,0,0,0,.661,2.42H55.4a16.123,16.123,0,0,1-.782-2.781,2.54,2.54,0,0,0-1.473-2.044v-.045a2.66,2.66,0,0,0,1.894-2.57,2.587,2.587,0,0,0-.8-1.939,4.191,4.191,0,0,0-2.931-.827,15.216,15.216,0,0,0-2.51.21ZM50.1-18.971a5.735,5.735,0,0,1,1.293-.105c1.383,0,2.33.571,2.33,1.879,0,1.157-.887,1.924-2.285,1.924H50.1ZM65.841-9.893v-1.1H61.468v-.03l.767-.721c2.059-1.984,3.367-3.442,3.367-5.245a2.749,2.749,0,0,0-2.991-2.841,4.327,4.327,0,0,0-2.75.992l.421.932a3.327,3.327,0,0,1,2.074-.827,1.731,1.731,0,0,1,1.924,1.909c0,1.473-1.142,2.735-3.637,5.11L59.6-10.7v.812Zm4.749-9.935c-1.984,0-3.412,1.789-3.412,5.08.03,3.231,1.338,5.02,3.246,5.02,2.149,0,3.4-1.834,3.4-5.155C73.822-17.994,72.635-19.828,70.591-19.828Zm-.09,1.022c1.383,0,1.984,1.578,1.984,3.983,0,2.495-.646,4.073-1.984,4.073-1.2,0-1.984-1.443-1.984-3.983C68.517-17.393,69.358-18.806,70.5-18.806ZM81.262-9.893v-1.1H76.888v-.03l.767-.721c2.059-1.984,3.367-3.442,3.367-5.245a2.749,2.749,0,0,0-2.991-2.841,4.327,4.327,0,0,0-2.75.992l.421.932a3.327,3.327,0,0,1,2.074-.827A1.731,1.731,0,0,1,79.7-16.822c0,1.473-1.142,2.735-3.637,5.11L75.025-10.7v.812Zm7.71,0v-1.1H84.6v-.03l.767-.721c2.059-1.984,3.367-3.442,3.367-5.245a2.749,2.749,0,0,0-2.991-2.841,4.327,4.327,0,0,0-2.75.992l.421.932a3.327,3.327,0,0,1,2.074-.827,1.731,1.731,0,0,1,1.924,1.909c0,1.473-1.142,2.735-3.637,5.11L82.735-10.7v.812Z" transform="translate(-2.249 37.431)" fill="#fff"/>
    <path id="Path_1176" data-name="Path 1176" d="M9.065-15.12H5.845V-14.1H7.818v2.916a4.116,4.116,0,0,1-1.683.261c-2.292,0-3.772-1.465-3.772-3.946a3.657,3.657,0,0,1,3.931-3.931,4.857,4.857,0,0,1,2.162.421l.319-1.03a6.129,6.129,0,0,0-2.452-.45c-3.279,0-5.3,2.133-5.3,5.048a5.03,5.03,0,0,0,1.364,3.641A5.026,5.026,0,0,0,6.048-9.883a8.84,8.84,0,0,0,3.017-.537Zm4.918-2.031A3.432,3.432,0,0,0,10.5-13.437a3.346,3.346,0,0,0,3.366,3.612,3.439,3.439,0,0,0,3.5-3.728A3.321,3.321,0,0,0,13.983-17.151Zm-.029.957c1.509,0,2.1,1.494,2.1,2.684,0,1.581-.914,2.727-2.133,2.727-1.248,0-2.118-1.161-2.118-2.7C11.807-14.8,12.46-16.194,13.954-16.194Zm7.993-.957a3.432,3.432,0,0,0-3.482,3.714,3.346,3.346,0,0,0,3.366,3.612,3.439,3.439,0,0,0,3.5-3.728A3.321,3.321,0,0,0,21.948-17.151Zm-.029.957c1.509,0,2.1,1.494,2.1,2.684,0,1.581-.914,2.727-2.133,2.727-1.248,0-2.118-1.161-2.118-2.7C19.771-14.8,20.424-16.194,21.919-16.194Zm11.025,1.1c0-.841.015-1.422.058-1.915H31.87l-.044,1.059H31.8a2.344,2.344,0,0,0-2.191-1.2c-1.625,0-3.177,1.335-3.177,3.714a3.139,3.139,0,0,0,2.988,3.424,2.489,2.489,0,0,0,2.234-1.175h.029v.769c0,1.784-.957,2.466-2.263,2.466a3.822,3.822,0,0,1-2.06-.566l-.319.986a4.532,4.532,0,0,0,2.336.58,3.858,3.858,0,0,0,2.568-.841,4.127,4.127,0,0,0,1-3.221Zm-1.277,2.118a2.221,2.221,0,0,1-.1.682,1.84,1.84,0,0,1-1.77,1.306c-1.364,0-2.074-1.146-2.074-2.524,0-1.625.87-2.655,2.089-2.655A1.822,1.822,0,0,1,31.595-14.8a1.675,1.675,0,0,1,.073.566Zm3.38,2.988h1.277v-10.3H35.047Zm9.067-3.279a3.112,3.112,0,0,0,.044-.595c0-1.291-.595-3.293-2.9-3.293-2.045,0-3.293,1.654-3.293,3.772a3.272,3.272,0,0,0,3.453,3.554,5.72,5.72,0,0,0,2.35-.45l-.232-.914a4.567,4.567,0,0,1-1.944.363,2.243,2.243,0,0,1-2.408-2.437ZM39.2-14.177a2.091,2.091,0,0,1,1.958-2.06,1.812,1.812,0,0,1,1.77,2.06Zm9.662,4.192H50.12V-13.9a4.344,4.344,0,0,0,1.015.087,4.074,4.074,0,0,0,2.988-1.074,2.878,2.878,0,0,0,.754-2.089,2.678,2.678,0,0,0-.856-2.045,4.017,4.017,0,0,0-2.742-.812,14.628,14.628,0,0,0-2.423.189Zm1.262-8.748a5.3,5.3,0,0,1,1.19-.1c1.378,0,2.307.624,2.307,1.929s-.928,2.074-2.452,2.074a4.232,4.232,0,0,1-1.044-.1Zm10.967,4.439c0-1.393-.522-2.858-2.669-2.858a4.547,4.547,0,0,0-2.321.609l.29.856a3.384,3.384,0,0,1,1.842-.522,1.438,1.438,0,0,1,1.6,1.61v.145c-2.713-.015-4.222.914-4.222,2.611a2,2,0,0,0,2.147,2.016A2.615,2.615,0,0,0,59.9-10.87h.044l.1.885h1.146a11.78,11.78,0,0,1-.1-1.683Zm-1.233,1.944a1.441,1.441,0,0,1-.058.406,1.772,1.772,0,0,1-1.726,1.175,1.118,1.118,0,0,1-1.19-1.219c0-1.364,1.581-1.61,2.974-1.581Zm3.293,2.365h1.277v-3.743a3.819,3.819,0,0,1,.044-.595,1.777,1.777,0,0,1,1.712-1.625,1.987,1.987,0,0,1,.435.029v-1.2a2.6,2.6,0,0,0-.348-.029,2.123,2.123,0,0,0-1.958,1.538h-.044l-.058-1.393H63.089c.044.653.058,1.364.058,2.191Zm5.382-8.327v1.306H67.441v.972h1.088v3.83a2.743,2.743,0,0,0,.493,1.842,1.821,1.821,0,0,0,1.378.537A3.48,3.48,0,0,0,71.532-10l-.058-.972a2.384,2.384,0,0,1-.74.087c-.711,0-.957-.493-.957-1.364v-3.786H71.6v-.972H69.777v-1.683Zm4.512,8.327h1.277v-4.222A1.836,1.836,0,0,1,74.4-14.8a1.842,1.842,0,0,1,1.712-1.306c1.2,0,1.625.943,1.625,2.074v4.047h1.277v-4.178c0-2.408-1.509-2.988-2.481-2.988a2.6,2.6,0,0,0-2.321,1.306h-.029l-.073-1.161H72.983c.044.58.058,1.161.058,1.9Zm13.695-3.279a3.112,3.112,0,0,0,.044-.595c0-1.291-.595-3.293-2.9-3.293-2.045,0-3.293,1.654-3.293,3.772a3.272,3.272,0,0,0,3.453,3.554,5.72,5.72,0,0,0,2.35-.45l-.232-.914a4.567,4.567,0,0,1-1.944.363A2.243,2.243,0,0,1,81.8-13.263Zm-4.918-.914a2.091,2.091,0,0,1,1.958-2.06,1.812,1.812,0,0,1,1.77,2.06ZM88.36-9.985h1.277v-3.743a3.819,3.819,0,0,1,.044-.595,1.777,1.777,0,0,1,1.712-1.625,1.987,1.987,0,0,1,.435.029v-1.2a2.6,2.6,0,0,0-.348-.029,2.123,2.123,0,0,0-1.958,1.538h-.044l-.058-1.393H88.3c.044.653.058,1.364.058,2.191Z" transform="translate(-1.029 20.285)" fill="#fff"/>
  </g>
</svg>
