<svg id="Meta_Platforms_Inc._logo" xmlns="http://www.w3.org/2000/svg" width="101.971" height="35.183" viewBox="0 0 101.971 35.183">
  <path id="path763" d="M552.962,189.3h3.85l6.583,11.893,6.583-11.893h3.757v19.531h-3.167V193.864l-5.775,10.371h-2.95l-5.776-10.371v14.967H552.9V189.3Z" transform="translate(-515.515 -188.648)" fill="#fff"/>
  <path id="path765" d="M636.459,219.515a7.466,7.466,0,0,1-3.85-.963,6.871,6.871,0,0,1-2.577-2.67,8.134,8.134,0,0,1-.931-3.944,8.617,8.617,0,0,1,.9-3.974,6.6,6.6,0,0,1,2.515-2.7,6.98,6.98,0,0,1,3.695-.963,6.119,6.119,0,0,1,5.869,3.757,10.151,10.151,0,0,1,.807,4.161v.869H632.174a4.75,4.75,0,0,0,1.428,2.826,4.239,4.239,0,0,0,2.919,1.025,6.384,6.384,0,0,0,2.422-.4,6.683,6.683,0,0,0,1.925-1.273l1.677,2.049a9.042,9.042,0,0,1-6.086,2.2Zm2.3-11.582a3.437,3.437,0,0,0-2.608-1.025,3.533,3.533,0,0,0-2.608,1.025,4.747,4.747,0,0,0-1.335,2.764h7.669A4.251,4.251,0,0,0,638.757,207.933Z" transform="translate(-568.054 -198.99)" fill="#fff"/>
  <path id="path767" d="M679.488,198.431H676.6v-2.577h2.888V191.6h3.043v4.254h4.409v2.577h-4.409v6.552a3.775,3.775,0,0,0,.558,2.329,2.3,2.3,0,0,0,1.925.683,9.038,9.038,0,0,0,1.025-.062c.28-.031.59-.062.931-.124v2.546a7.221,7.221,0,0,1-1.18.248,10.093,10.093,0,0,1-1.366.093c-3.291,0-4.937-1.8-4.937-5.372Z" transform="translate(-600.805 -190.234)" fill="#fff"/>
  <path id="path769" d="M728.977,219H726v-2.049a5.258,5.258,0,0,1-2.019,1.77,6.467,6.467,0,0,1-6.21-.373,6.6,6.6,0,0,1-2.329-2.7,8.873,8.873,0,0,1-.839-3.943,8.479,8.479,0,0,1,.87-3.944,6.748,6.748,0,0,1,2.391-2.7,6.336,6.336,0,0,1,3.509-.963,5.73,5.73,0,0,1,2.67.59A5.021,5.021,0,0,1,726,206.336v-1.863h2.981Zm-3.043-9.44a3.9,3.9,0,0,0-1.553-1.956,4.349,4.349,0,0,0-2.422-.714,3.943,3.943,0,0,0-3.1,1.3,5.114,5.114,0,0,0-1.149,3.54,5.4,5.4,0,0,0,1.118,3.571,3.749,3.749,0,0,0,3.012,1.3,4.661,4.661,0,0,0,2.515-.714,4.06,4.06,0,0,0,1.584-1.956Z" transform="translate(-627.006 -198.852)" fill="#fff"/>
  <path id="Logo0" d="M435.922,200.738a5.178,5.178,0,0,0,.59,2.639,2.048,2.048,0,0,0,1.77,1.025c.869,0,1.677-.217,3.2-2.329,1.242-1.708,2.67-4.1,3.664-5.589l1.646-2.546a24.815,24.815,0,0,1,4.006-5.061,6.017,6.017,0,0,1,3.944-1.677c2.267,0,4.409,1.3,6.086,3.788a17.3,17.3,0,0,1,2.67,9.595,9.192,9.192,0,0,1-1.118,4.813,4.61,4.61,0,0,1-4.192,2.329V204.4c1.894,0,2.36-1.739,2.36-3.726a15.892,15.892,0,0,0-2.112-8.259,4.857,4.857,0,0,0-3.85-2.577c-1.584,0-2.888,1.211-4.316,3.354-.776,1.149-1.553,2.546-2.453,4.1l-.962,1.739a40.434,40.434,0,0,1-3.447,5.558c-1.708,2.3-3.167,3.136-5.092,3.136a5,5,0,0,1-4.626-2.484,8.875,8.875,0,0,1-1.087-4.627Z" transform="translate(-432.6 -187.2)" fill="#fff"/>
  <path id="Logo1" d="M441.1,191.206c1.522-2.36,3.726-4.006,6.272-4.006a6.763,6.763,0,0,1,4.44,1.677c1.677,1.366,3.447,3.6,5.651,7.3l.807,1.335a53.188,53.188,0,0,0,3.664,5.62c.807.994,1.4,1.3,2.143,1.3,1.894,0,2.36-1.739,2.36-3.726l2.95-.093a9.192,9.192,0,0,1-1.118,4.813,4.61,4.61,0,0,1-4.192,2.329,5.241,5.241,0,0,1-3.944-1.584,21.324,21.324,0,0,1-3.167-4.285L454.2,197.26a31.031,31.031,0,0,0-3.416-4.844,4.7,4.7,0,0,0-3.447-1.863c-1.3,0-2.453.932-3.384,2.329Z" transform="translate(-438.43 -187.2)" fill="#fff"/>
  <path id="Logo2" d="M441.381,190.554c-1.3,0-2.453.932-3.384,2.329a14.744,14.744,0,0,0-2.143,7.856,5.18,5.18,0,0,0,.59,2.639l-2.857,1.863a8.878,8.878,0,0,1-1.087-4.627,17.623,17.623,0,0,1,2.639-9.408c1.521-2.36,3.726-4.006,6.272-4.006Z" transform="translate(-432.5 -187.2)" fill="#fff"/>
  <path id="Path_1175" data-name="Path 1175" d="M3.493-20.972a15.376,15.376,0,0,0,2.041.121A5.047,5.047,0,0,0,9.041-21.8a2.679,2.679,0,0,0,.877-2.041,2.6,2.6,0,0,0-2.1-2.54v-.045A2.411,2.411,0,0,0,9.54-28.667a2.147,2.147,0,0,0-.862-1.8A4.139,4.139,0,0,0,5.9-31.207a11.575,11.575,0,0,0-2.4.227ZM4.808-30.1a5.643,5.643,0,0,1,1.164-.091c1.33,0,2.222.484,2.222,1.663,0,.983-.816,1.723-2.192,1.723H4.808Zm0,4.278H5.9c1.436,0,2.631.59,2.631,1.965,0,1.482-1.255,1.98-2.615,1.98a7.152,7.152,0,0,1-1.1-.06Zm12.956-2.434h-1.33v4.475a1.824,1.824,0,0,1-.121.68,1.913,1.913,0,0,1-1.754,1.225c-1.194,0-1.633-.952-1.633-2.343v-4.037H11.6v4.278c0,2.555,1.376,3.205,2.525,3.205a2.733,2.733,0,0,0,2.419-1.361h.03l.076,1.194h1.179c-.045-.574-.06-1.24-.06-2.011Zm1.708,6.969a4.171,4.171,0,0,0,2.056.514c1.708,0,2.721-.907,2.721-2.207,0-1.088-.665-1.723-1.92-2.192-.952-.378-1.376-.65-1.376-1.255,0-.544.423-1,1.209-1a2.835,2.835,0,0,1,1.5.438l.317-.968a3.4,3.4,0,0,0-1.784-.454,2.265,2.265,0,0,0-2.525,2.147c0,.877.62,1.587,1.95,2.071.968.363,1.346.7,1.346,1.33,0,.62-.454,1.088-1.406,1.088a3.758,3.758,0,0,1-1.769-.514Zm7.816.348v-7.317h-1.33v7.317Zm-.665-10.2a.81.81,0,0,0-.831.831.782.782,0,0,0,.8.816.794.794,0,0,0,.847-.816A.8.8,0,0,0,26.624-31.146Zm2.872,10.2h1.33v-4.4a1.913,1.913,0,0,1,.091-.62A1.92,1.92,0,0,1,32.7-27.322c1.255,0,1.693.983,1.693,2.162v4.218h1.33V-25.3c0-2.51-1.572-3.114-2.585-3.114a2.71,2.71,0,0,0-2.419,1.361h-.03l-.076-1.209H29.435c.045.6.06,1.209.06,1.98Zm14.271-3.417a3.244,3.244,0,0,0,.045-.62c0-1.346-.62-3.432-3.024-3.432-2.132,0-3.432,1.723-3.432,3.931a3.41,3.41,0,0,0,3.6,3.7,5.961,5.961,0,0,0,2.449-.469l-.242-.952a4.759,4.759,0,0,1-2.026.378,2.337,2.337,0,0,1-2.51-2.54Zm-5.125-.952a2.179,2.179,0,0,1,2.041-2.147,1.889,1.889,0,0,1,1.844,2.147Zm6.319,4.021a4.171,4.171,0,0,0,2.056.514c1.708,0,2.721-.907,2.721-2.207,0-1.088-.665-1.723-1.92-2.192-.952-.378-1.376-.65-1.376-1.255,0-.544.423-1,1.209-1a2.835,2.835,0,0,1,1.5.438l.317-.968a3.4,3.4,0,0,0-1.784-.454,2.265,2.265,0,0,0-2.525,2.147c0,.877.62,1.587,1.95,2.071.968.363,1.346.7,1.346,1.33,0,.62-.454,1.088-1.406,1.088a3.758,3.758,0,0,1-1.769-.514Zm5.987,0A4.171,4.171,0,0,0,53-20.775c1.708,0,2.721-.907,2.721-2.207,0-1.088-.665-1.723-1.92-2.192-.952-.378-1.376-.65-1.376-1.255,0-.544.423-1,1.209-1a2.835,2.835,0,0,1,1.5.438l.317-.968a3.4,3.4,0,0,0-1.784-.454,2.265,2.265,0,0,0-2.525,2.147c0,.877.62,1.587,1.95,2.071.968.363,1.346.7,1.346,1.33,0,.62-.454,1.088-1.406,1.088a3.758,3.758,0,0,1-1.769-.514Zm9.736.348H62v-4.082a4.527,4.527,0,0,0,1.058.091,4.246,4.246,0,0,0,3.114-1.119,3,3,0,0,0,.786-2.177,2.791,2.791,0,0,0-.892-2.132,4.186,4.186,0,0,0-2.857-.847,15.243,15.243,0,0,0-2.525.2ZM62-30.058a5.519,5.519,0,0,1,1.24-.106c1.436,0,2.4.65,2.4,2.011,0,1.376-.968,2.162-2.555,2.162A4.411,4.411,0,0,1,62-26.1Zm11.429,4.626c0-1.451-.544-2.978-2.782-2.978a4.738,4.738,0,0,0-2.419.635l.3.892a3.526,3.526,0,0,1,1.92-.544,1.5,1.5,0,0,1,1.663,1.678v.151c-2.827-.015-4.4.952-4.4,2.721a2.085,2.085,0,0,0,2.237,2.1,2.725,2.725,0,0,0,2.237-1.088h.045l.106.922h1.194a12.276,12.276,0,0,1-.106-1.754Zm-1.285,2.026a1.5,1.5,0,0,1-.06.423,1.847,1.847,0,0,1-1.8,1.225,1.166,1.166,0,0,1-1.24-1.27c0-1.421,1.648-1.678,3.1-1.648Zm3.432,2.464h1.33v-3.9a3.979,3.979,0,0,1,.045-.62,1.852,1.852,0,0,1,1.784-1.693,2.071,2.071,0,0,1,.454.03V-28.38a2.708,2.708,0,0,0-.363-.03,2.213,2.213,0,0,0-2.041,1.6H76.74l-.06-1.451H75.515c.045.68.06,1.421.06,2.283Zm5.609-8.678v1.361H80.051v1.013h1.134v3.991a2.858,2.858,0,0,0,.514,1.92,1.9,1.9,0,0,0,1.436.559,3.627,3.627,0,0,0,1.179-.181l-.06-1.013a2.484,2.484,0,0,1-.771.091c-.741,0-1-.514-1-1.421v-3.946h1.9v-1.013h-1.9v-1.754Zm4.7,8.678h1.33v-4.4a1.913,1.913,0,0,1,.091-.62,1.92,1.92,0,0,1,1.784-1.361c1.255,0,1.693.983,1.693,2.162v4.218h1.33V-25.3c0-2.51-1.572-3.114-2.585-3.114a2.71,2.71,0,0,0-2.419,1.361h-.03L87-28.259H85.826c.045.6.06,1.209.06,1.98Zm14.271-3.417a3.244,3.244,0,0,0,.045-.62c0-1.346-.62-3.432-3.024-3.432-2.132,0-3.432,1.723-3.432,3.931a3.41,3.41,0,0,0,3.6,3.7,5.961,5.961,0,0,0,2.449-.469l-.242-.952a4.759,4.759,0,0,1-2.026.378,2.337,2.337,0,0,1-2.51-2.54Zm-5.125-.952a2.179,2.179,0,0,1,2.041-2.147,1.889,1.889,0,0,1,1.844,2.147Zm6.818,4.369h1.33v-3.9a3.977,3.977,0,0,1,.045-.62,1.852,1.852,0,0,1,1.784-1.693,2.071,2.071,0,0,1,.454.03V-28.38a2.708,2.708,0,0,0-.363-.03,2.213,2.213,0,0,0-2.041,1.6h-.045l-.06-1.451H101.79c.045.68.06,1.421.06,2.283Z" transform="translate(-3.493 55.959)" fill="#fff"/>
</svg>
