<svg id="microsoft-partner" xmlns="http://www.w3.org/2000/svg" width="112.664" height="35.183" viewBox="0 0 112.664 35.183">
  <path id="Path_1180" data-name="Path 1180" d="M.648,15.187H3.335V6.848A9.249,9.249,0,0,0,5.5,7.033,8.674,8.674,0,0,0,11.86,4.747,6.128,6.128,0,0,0,13.466.3a5.7,5.7,0,0,0-1.822-4.355c-1.235-1.112-3.181-1.73-5.838-1.73a31.145,31.145,0,0,0-5.158.4ZM3.335-3.438a11.277,11.277,0,0,1,2.533-.216c2.934,0,4.911,1.328,4.911,4.108,0,2.811-1.977,4.417-5.22,4.417a9.012,9.012,0,0,1-2.224-.216ZM26.686,6.014c0-2.965-1.112-6.085-5.683-6.085a9.68,9.68,0,0,0-4.942,1.3l.618,1.822A7.2,7.2,0,0,1,20.6,1.937C23.659,1.906,24,4.161,24,5.365v.309c-5.776-.031-8.988,1.946-8.988,5.56a4.259,4.259,0,0,0,4.571,4.293A5.568,5.568,0,0,0,24.153,13.3h.093l.216,1.884H26.9a25.083,25.083,0,0,1-.216-3.583ZM24.06,10.153a3.069,3.069,0,0,1-.124.865,3.774,3.774,0,0,1-3.676,2.5,2.381,2.381,0,0,1-2.533-2.595c0-2.9,3.367-3.428,6.332-3.367Zm7.011,5.035H33.79V7.218a8.132,8.132,0,0,1,.093-1.266c.371-2.039,1.73-3.459,3.645-3.459a4.231,4.231,0,0,1,.927.062V-.009a5.533,5.533,0,0,0-.741-.062A4.521,4.521,0,0,0,33.542,3.2H33.45L33.326.238H30.948c.093,1.39.124,2.9.124,4.664ZM42.531-2.542V.238H40.214V2.307h2.317v8.154a5.84,5.84,0,0,0,1.05,3.923,3.877,3.877,0,0,0,2.934,1.143,7.41,7.41,0,0,0,2.409-.371L48.8,13.087a5.075,5.075,0,0,1-1.575.185c-1.513,0-2.039-1.05-2.039-2.9V2.307h3.892V.238H45.187V-3.345Zm9.606,17.729h2.718V6.2a3.986,3.986,0,0,1,3.83-4.046c2.564,0,3.459,2.008,3.459,4.417v8.618h2.718v-8.9c0-5.127-3.212-6.363-5.282-6.363a5.537,5.537,0,0,0-4.942,2.78h-.062L54.422.238H52.013c.093,1.235.124,2.471.124,4.046ZM81.294,8.207a6.627,6.627,0,0,0,.093-1.266c0-2.749-1.266-7.011-6.177-7.011C70.854-.071,68.2,3.45,68.2,7.96s2.749,7.567,7.351,7.567a12.178,12.178,0,0,0,5-.958l-.494-1.946a9.723,9.723,0,0,1-4.139.772c-2.749,0-5.066-1.513-5.127-5.189ZM70.823,6.261c.216-1.884,1.39-4.386,4.17-4.386,3.058,0,3.8,2.687,3.768,4.386Zm13.93,8.926h2.718V7.218a8.13,8.13,0,0,1,.093-1.266c.371-2.039,1.73-3.459,3.645-3.459a4.231,4.231,0,0,1,.927.062V-.009a5.533,5.533,0,0,0-.741-.062A4.521,4.521,0,0,0,87.225,3.2h-.093L87.008.238H84.63c.093,1.39.124,2.9.124,4.664Z" transform="translate(-0.577 19.656)" fill="#fff"/>
  <g id="Group_1135" data-name="Group 1135" transform="translate(0 0.221)">
    <path id="Path_1152" data-name="Path 1152" d="M45.667-.306l-.315.945h0l-.315-.945L43.209-4.844H41.381V2.4h1.2V-3.08c0-.189,0-.378-.063-.441h0a3.917,3.917,0,0,0,.189.63L44.911,2.4h.819l2.143-5.358c.063-.126.063-.378.126-.567h0L47.936-2.2V2.4H49.2V-4.844H47.5Zm4.79-2.458h1.2V2.4h-1.2Zm.567-2.206a.716.716,0,0,0-.5.189.716.716,0,0,0-.189.5.716.716,0,0,0,.189.5.716.716,0,0,0,.5.189.716.716,0,0,0,.5-.189.716.716,0,0,0,.189-.5.716.716,0,0,0-.189-.5c-.063-.126-.252-.189-.5-.189m4.917,2.143a2.586,2.586,0,0,0-.693-.063,2.611,2.611,0,0,0-1.45.378A2.091,2.091,0,0,0,52.853-1.5,2.968,2.968,0,0,0,52.538.009a2.93,2.93,0,0,0,.315,1.324,2.273,2.273,0,0,0,.945.945,2.93,2.93,0,0,0,1.324.315,2.611,2.611,0,0,0,1.45-.378h0V1.081l-.063.063a2.555,2.555,0,0,1-.567.315,2.339,2.339,0,0,1-.567.126,1.349,1.349,0,0,1-1.135-.441,1.85,1.85,0,0,1-.441-1.2,1.717,1.717,0,0,1,.441-1.261,1.519,1.519,0,0,1,1.135-.441,1.888,1.888,0,0,1,1.135.378l.063.063v-1.2h0a1.2,1.2,0,0,0-.63-.315m4.034-.063a1.044,1.044,0,0,0-.819.315,1.632,1.632,0,0,0-.441.693h0v-.882h-1.2V2.4h1.2V-.243a1.457,1.457,0,0,1,.315-1.072.961.961,0,0,1,.756-.441.8.8,0,0,1,.378.063c.126.063.252.063.315.126l.063.063V-2.7h0a.88.88,0,0,0-.567-.189m3.341,0a2.662,2.662,0,0,0-2.017.756,2.721,2.721,0,0,0-.693,2.017A2.839,2.839,0,0,0,61.3,1.837a2.678,2.678,0,0,0,1.891.693,2.517,2.517,0,0,0,1.954-.756,2.721,2.721,0,0,0,.693-2.017A2.839,2.839,0,0,0,65.144-2.2a2.326,2.326,0,0,0-1.828-.693m.945,3.971a1.175,1.175,0,0,1-1.009.441,1.3,1.3,0,0,1-1.072-.441A1.882,1.882,0,0,1,61.8-.18a1.882,1.882,0,0,1,.378-1.261,1.3,1.3,0,0,1,1.072-.441,1.175,1.175,0,0,1,1.009.441A1.882,1.882,0,0,1,64.64-.18a1.774,1.774,0,0,1-.378,1.261m4.349-1.7A4.027,4.027,0,0,1,67.855-1a.676.676,0,0,1-.126-.378.545.545,0,0,1,.189-.378,1.188,1.188,0,0,1,.5-.126c.189,0,.441.063.63.063a2.24,2.24,0,0,1,.567.252l.063.063V-2.638h0a2.931,2.931,0,0,0-.567-.189,2.364,2.364,0,0,0-.63-.063,2.21,2.21,0,0,0-1.45.441,1.432,1.432,0,0,0-.567,1.135,1.865,1.865,0,0,0,.126.63.98.98,0,0,0,.378.5c.189.126.441.252.756.441a2.9,2.9,0,0,1,.63.315c.126.063.189.189.252.252a.472.472,0,0,1,.063.315c0,.378-.252.5-.819.5a3.252,3.252,0,0,1-.693-.126,1.5,1.5,0,0,1-.693-.378L66.4,1.081v1.2h0c.189.063.378.126.63.189a2.827,2.827,0,0,0,.693.063,2.277,2.277,0,0,0,1.513-.441,1.464,1.464,0,0,0,.567-1.2,1.1,1.1,0,0,0-.315-.882,1.488,1.488,0,0,0-.882-.63m4.6-2.269a2.662,2.662,0,0,0-2.017.756A2.721,2.721,0,0,0,70.5-.117,2.84,2.84,0,0,0,71.2,1.837a2.678,2.678,0,0,0,1.891.693,2.517,2.517,0,0,0,1.954-.756,2.721,2.721,0,0,0,.693-2.017A2.839,2.839,0,0,0,75.04-2.2a2.326,2.326,0,0,0-1.828-.693m.945,3.971a1.175,1.175,0,0,1-1.009.441,1.3,1.3,0,0,1-1.072-.441A1.882,1.882,0,0,1,71.7-.18a1.882,1.882,0,0,1,.378-1.261,1.3,1.3,0,0,1,1.072-.441,1.175,1.175,0,0,1,1.009.441A1.882,1.882,0,0,1,74.536-.18a1.774,1.774,0,0,1-.378,1.261m8.131-2.836V-2.764h-1.2V-4.277h-.063L79.894-3.9h0v1.2H78.066v-.63a1.132,1.132,0,0,1,.189-.693.614.614,0,0,1,.567-.252,1.84,1.84,0,0,1,.567.126h.063V-5.223h0a2.156,2.156,0,0,0-.693-.063,1.519,1.519,0,0,0-.945.252,1.831,1.831,0,0,0-.693.693,1.641,1.641,0,0,0-.252.945V-2.7h-.882v1.009h.882V2.53h1.2V-1.63h1.828V1.018c0,1.072.5,1.639,1.576,1.639a1.229,1.229,0,0,0,.5-.063c.189-.063.315-.063.378-.126h0V1.459l-.063.063c-.063.063-.126.063-.252.126-.063,0-.189.063-.252.063-.252,0-.441-.063-.5-.189a1.014,1.014,0,0,1-.189-.693V-1.63h1.2Z" transform="translate(-25.686 7.24)" fill="#fff"/>
    <path id="Path_1153" data-name="Path 1153" d="M37.052-5.825h5.736V-.089H37.052Z" transform="translate(-37.052 5.825)" fill="#fff"/>
    <path id="Path_1154" data-name="Path 1154" d="M38.808-5.825h5.736V-.089H38.808Z" transform="translate(-32.442 5.825)" fill="#fff"/>
    <path id="Path_1155" data-name="Path 1155" d="M37.052-4.069h5.736V1.667H37.052Z" transform="translate(-37.052 10.435)" fill="#fff"/>
    <path id="Path_1156" data-name="Path 1156" d="M38.808-4.069h5.736V1.667H38.808Z" transform="translate(-32.442 10.435)" fill="#fff"/>
  </g>
  <path id="Path_1181" data-name="Path 1181" d="M3.855,2.87l.684,2.014h.883l-2.185-6.4H2.25L.065,4.884H.92L1.585,2.87Zm-2.1-.646L2.383.372c.133-.389.228-.788.323-1.159h.019c.095.37.19.75.332,1.168l.636,1.843Zm7.6-4.084V.885H9.336A1.54,1.54,0,0,0,7.949.191a2.2,2.2,0,0,0-2.061,2.46A2.1,2.1,0,0,0,7.864,4.988a1.66,1.66,0,0,0,1.548-.9H9.44l.038.8h.741C10.2,4.57,10.181,4.1,10.181,3.7V-1.86Zm0,4.816a1.452,1.452,0,0,1-.038.361,1.266,1.266,0,0,1-1.225,1c-.893,0-1.358-.769-1.358-1.7,0-1.007.513-1.767,1.377-1.767a1.231,1.231,0,0,1,1.206.959,1.475,1.475,0,0,1,.038.351ZM11.007.286l1.748,4.6h.8l1.8-4.6h-.874L13.591,2.86c-.152.427-.285.807-.389,1.187h-.028c-.095-.38-.218-.76-.37-1.187L11.9.286Zm8.738,2.451a2.037,2.037,0,0,0,.028-.389,1.934,1.934,0,0,0-1.9-2.156,2.223,2.223,0,0,0-2.156,2.47,2.142,2.142,0,0,0,2.261,2.327,3.745,3.745,0,0,0,1.539-.294l-.152-.6a2.99,2.99,0,0,1-1.273.237,1.468,1.468,0,0,1-1.577-1.6Zm-3.22-.6A1.369,1.369,0,0,1,17.808.79a1.187,1.187,0,0,1,1.159,1.349ZM20.81,4.884h.836V2.433a2.5,2.5,0,0,1,.028-.389A1.164,1.164,0,0,1,22.795.98,1.3,1.3,0,0,1,23.08,1V.21a1.7,1.7,0,0,0-.228-.019A1.39,1.39,0,0,0,21.569,1.2h-.028L21.5.286h-.731c.028.427.038.893.038,1.434ZM24.333-.568V.286h-.712V.923h.712V3.43a1.8,1.8,0,0,0,.323,1.206,1.192,1.192,0,0,0,.9.351,2.279,2.279,0,0,0,.741-.114l-.038-.636a1.561,1.561,0,0,1-.484.057c-.465,0-.627-.323-.627-.893V.923h1.2V.286h-1.2v-1.1Zm3.79,5.452V.286h-.836v4.6Zm-.418-6.411a.509.509,0,0,0-.522.522.491.491,0,0,0,.5.513.5.5,0,0,0,.532-.513A.5.5,0,0,0,27.705-1.528ZM29.2,4.665a2.621,2.621,0,0,0,1.292.323c1.073,0,1.71-.57,1.71-1.387,0-.684-.418-1.083-1.206-1.377-.6-.237-.864-.408-.864-.788,0-.342.266-.627.76-.627a1.781,1.781,0,0,1,.94.275l.2-.608A2.134,2.134,0,0,0,30.906.191,1.423,1.423,0,0,0,29.32,1.54c0,.551.389,1,1.225,1.3.608.228.845.437.845.836s-.285.684-.883.684A2.361,2.361,0,0,1,29.4,4.038Zm4.911.218V.286h-.836v4.6Zm-.418-6.411a.509.509,0,0,0-.522.522.491.491,0,0,0,.5.513.5.5,0,0,0,.532-.513A.5.5,0,0,0,33.689-1.528Zm1.8,6.411h.836V2.12A1.226,1.226,0,0,1,37.507.875c.788,0,1.064.617,1.064,1.358v2.65h.836V2.148c0-1.577-.988-1.957-1.624-1.957a1.7,1.7,0,0,0-1.52.855h-.019L36.2.286h-.741c.028.38.038.76.038,1.244ZM44.7,1.54c0-.551.009-.931.038-1.254h-.741L43.966.98h-.019A1.535,1.535,0,0,0,42.513.191a2.2,2.2,0,0,0-2.08,2.432,2.055,2.055,0,0,0,1.957,2.242A1.63,1.63,0,0,0,43.852,4.1h.019v.5c0,1.168-.627,1.615-1.482,1.615a2.5,2.5,0,0,1-1.349-.37l-.209.646a2.967,2.967,0,0,0,1.529.38,2.526,2.526,0,0,0,1.681-.551A2.7,2.7,0,0,0,44.7,4.209Zm-.836,1.387a1.454,1.454,0,0,1-.066.446,1.2,1.2,0,0,1-1.159.855c-.893,0-1.358-.75-1.358-1.653,0-1.064.57-1.738,1.368-1.738a1.193,1.193,0,0,1,1.168.893,1.1,1.1,0,0,1,.047.37Z" transform="translate(67.928 4.176)" fill="#fff"/>
  <path id="Line_1" data-name="Line 1" d="M.781,12.326H-.125V0H.781Z" transform="translate(61.833 0)" fill="#fff"/>
</svg>
