<svg id="semrush_agency_partners" data-name="semrush agency partners" xmlns="http://www.w3.org/2000/svg" width="102.064" height="35.183" viewBox="0 0 102.064 35.183">
  <g id="Group_1136" data-name="Group 1136" transform="translate(38.581 0)">
    <path id="Path_1157" data-name="Path 1157" d="M584.106,189.086h-1.629v-2.828h-4.435v2.828H576.3v-7.263h1.742v2.738h4.435V181.8h1.629Z" transform="translate(-520.624 -181.63)" fill="#fff"/>
    <path id="Path_1158" data-name="Path 1158" d="M407.875,189.163H406.2V181.9h2.964a.18.18,0,0,1,.2.158c.611,1.923,1.245,3.824,1.878,5.747a.083.083,0,0,0,.023.068.472.472,0,0,0,.091.136c.022-.045.068-.09.09-.136.226-.724.453-1.425.679-2.15l1.154-3.666a.2.2,0,0,1,.226-.158h2.874v7.263h-1.72v-5.951c-.023,0-.045,0-.045-.023-.023.068-.068.113-.091.181-.611,1.855-1.244,3.733-1.855,5.589-.045.158-.113.2-.294.2h-2.285c-.136,0-.2-.023-.249-.181-.611-1.878-1.2-3.734-1.81-5.612a.8.8,0,0,0-.09-.2c-.023,0-.045,0-.045.023C407.875,185.181,407.875,187.172,407.875,189.163Z" transform="translate(-389.012 -181.707)" fill="#fff"/>
    <path id="Path_1159" data-name="Path 1159" d="M464.438,186.829c.294.339.566.679.86,1.018.34.407.679.815,1.018,1.244.045.068.068.158.136.271-.091,0-.136.023-.181.023h-1.7a.314.314,0,0,1-.226-.113c-.611-.747-1.222-1.493-1.81-2.24a.342.342,0,0,0-.317-.158h-1.878v2.489H458.6V182.1h5.431a2.956,2.956,0,0,1,.973.181,2.2,2.2,0,0,1,1.448,2.263,2.336,2.336,0,0,1-1.833,2.24A.7.7,0,0,0,464.438,186.829Zm-4.1-3.258v1.81h3.485a.857.857,0,0,0,.837-.452.944.944,0,0,0-.611-1.312,2.5,2.5,0,0,0-.407-.045h-3.3Z" transform="translate(-429.556 -181.862)" fill="#fff"/>
    <path id="Path_1160" data-name="Path 1160" d="M337.562,183.414c-.226-.09-.43-.181-.634-.249a8.642,8.642,0,0,0-3.711-.5,4.909,4.909,0,0,0-.792.158.523.523,0,0,0-.43.52.55.55,0,0,0,.453.543,6.86,6.86,0,0,0,.95.136c.792.09,1.584.136,2.376.249a5.889,5.889,0,0,1,.905.226,1.986,1.986,0,0,1,.7,3.258,3.035,3.035,0,0,1-1.561.792,7.684,7.684,0,0,1-5.2-.679.4.4,0,0,1-.249-.407c.023-.453,0-.9,0-1.38.249.113.5.249.724.362a7.413,7.413,0,0,0,3.62.7,2.913,2.913,0,0,0,1.086-.226.661.661,0,0,0,.385-.43.509.509,0,0,0-.339-.633,3.848,3.848,0,0,0-.7-.136c-.973-.113-1.923-.181-2.9-.317a4.395,4.395,0,0,1-.883-.272,1.925,1.925,0,0,1-.43-3.236,3.553,3.553,0,0,1,1.855-.769,8.443,8.443,0,0,1,4.3.5c.407.158.407.158.407.611A6.464,6.464,0,0,1,337.562,183.414Z" transform="translate(-330.24 -181.049)" fill="#fff"/>
    <path id="Path_1161" data-name="Path 1161" d="M537.533,186.134c.5.2,1,.453,1.493.611a7.043,7.043,0,0,0,3.213.385,2.969,2.969,0,0,0,.77-.2.52.52,0,0,0,.362-.611.509.509,0,0,0-.452-.475c-.34-.068-.7-.091-1.041-.136-.814-.09-1.629-.158-2.421-.271a3.257,3.257,0,0,1-.905-.294,1.91,1.91,0,0,1-.475-3.145,3.169,3.169,0,0,1,1.72-.792,8.53,8.53,0,0,1,4.751.543.264.264,0,0,1,.181.271v1.426a.94.94,0,0,1-.136-.045,8.416,8.416,0,0,0-4.209-.7,4.9,4.9,0,0,0-.792.158.536.536,0,0,0,0,1.041,6.935,6.935,0,0,0,.95.158c.792.09,1.584.136,2.376.249a3.665,3.665,0,0,1,.973.272,1.963,1.963,0,0,1,.679,3.168,3.193,3.193,0,0,1-1.607.86,7.682,7.682,0,0,1-5.2-.679.4.4,0,0,1-.249-.407C537.555,187.039,537.533,186.564,537.533,186.134Z" transform="translate(-490.568 -181.077)" fill="#fff"/>
    <path id="Path_1162" data-name="Path 1162" d="M371.274,186.176v1.493h5.091v1.493H369.6V181.9h6.765v1.471h-5.091v1.312h5v1.493Z" transform="translate(-360.694 -181.707)" fill="#fff"/>
    <path id="Path_1163" data-name="Path 1163" d="M497.523,181.9h1.765v3.892a2.526,2.526,0,0,0,.113.7,1.735,1.735,0,0,0,1.38,1.244,2.759,2.759,0,0,0,1.358-.023,1.935,1.935,0,0,0,1.425-1.81,2.757,2.757,0,0,1,.022-.43v-3.417c0-.113.023-.158.159-.158h1.425c.113,0,.136.023.136.136,0,1.312.023,2.6-.023,3.914a3.424,3.424,0,0,1-3.168,3.394,5.078,5.078,0,0,1-2.4-.249,3.373,3.373,0,0,1-2.127-2.647,5.16,5.16,0,0,1-.091-1.018v-3.371A.336.336,0,0,0,497.523,181.9Z" transform="translate(-459.654 -181.707)" fill="#fff"/>
  </g>
  <g id="Group_1137" data-name="Group 1137" transform="translate(0 0)">
    <path id="Path_1164" data-name="Path 1164" d="M181.966,152.323a4.456,4.456,0,0,0,.543.068,11.4,11.4,0,0,1,5.5,1.448,8.8,8.8,0,0,1,4.3,6.019,9.928,9.928,0,0,1-7.829,11.857,16.123,16.123,0,0,1-4.548.181,27.605,27.605,0,0,1-8.915-2.217,21.965,21.965,0,0,1-5.544-3.123c-.136-.113-.249-.226-.385-.339-.158-.158-.271-.362-.136-.543a.651.651,0,0,1,.453-.2c1.72-.023,3.439,0,5.159,0a.727.727,0,0,0,.317-.023c.136-.068.317-.158.362-.272a.506.506,0,0,0-.113-.43,2.415,2.415,0,0,0-.566-.362,60.383,60.383,0,0,1-7.354-4.186,18.356,18.356,0,0,1-3.168-2.579,1.479,1.479,0,0,1-.294-.52c-.068-.226.09-.407.339-.43h11.54c.5,0,.7-.091.769-.362.068-.294-.113-.475-.588-.679a23.146,23.146,0,0,1-3.915-1.9,5.679,5.679,0,0,1-.837-.611.724.724,0,0,1-.226-.43c-.023-.2.158-.317.362-.339.045,0,.068-.045.091-.045Q174.612,152.334,181.966,152.323Zm-6,9.707a6.788,6.788,0,0,0,13.576,0,6.79,6.79,0,0,0-13.576,0Z" transform="translate(-159.73 -152.3)" fill="#fff"/>
    <path id="Path_1165" data-name="Path 1165" d="M264.152,178.57h-.113c-.747,0-.86-.136-.95-.883a3.182,3.182,0,0,0-2.987-2.9c-.521-.023-.7-.226-.7-.747a3.885,3.885,0,0,1,.045-.724.457.457,0,0,1,.566-.43,5.342,5.342,0,0,1,5.114,4.412,3.192,3.192,0,0,1,.023.656c0,.407-.158.566-.566.588a2.592,2.592,0,0,1-.43.023Z" transform="translate(-236.848 -168.229)" fill="#fff"/>
  </g>
  <path id="Path_1171" data-name="Path 1171" d="M7.774-39.53,8.74-36.5h2.107L7.378-47.18H4.891L1.47-36.5H3.482L4.4-39.53ZM4.717-41l.824-2.629c.174-.634.348-1.378.507-2h.032c.158.618.333,1.346.539,2L7.457-41Zm14.318-1c0-1.061.032-1.695.063-2.217H17.4l-.079,1.03h-.032a2.41,2.41,0,0,0-2.233-1.2c-1.853,0-3.5,1.536-3.5,4.071,0,2.186,1.362,3.77,3.279,3.77a2.584,2.584,0,0,0,2.249-1.14h.032v.665A2.05,2.05,0,0,1,14.9-34.7a4.657,4.657,0,0,1-2.249-.586l-.428,1.473a5.636,5.636,0,0,0,2.693.618,4.41,4.41,0,0,0,2.978-.934,4.47,4.47,0,0,0,1.14-3.5Zm-1.948,2.122a2.364,2.364,0,0,1-.079.681,1.658,1.658,0,0,1-1.584,1.188c-1.22,0-1.885-1.061-1.885-2.376,0-1.568.808-2.518,1.9-2.518a1.618,1.618,0,0,1,1.584,1.251,1.82,1.82,0,0,1,.063.523Zm10.58.063a4.8,4.8,0,0,0,.063-.824c0-1.695-.824-3.754-3.326-3.754-2.471,0-3.77,2.012-3.77,4.15a3.649,3.649,0,0,0,3.976,3.9,6.928,6.928,0,0,0,2.693-.491l-.285-1.33a6.213,6.213,0,0,1-2.138.348,2.088,2.088,0,0,1-2.376-2ZM22.5-41.177a1.906,1.906,0,0,1,1.79-1.885,1.658,1.658,0,0,1,1.6,1.885ZM29.3-36.5h1.948V-41.05a1.808,1.808,0,0,1,.1-.618,1.635,1.635,0,0,1,1.521-1.14c1.061,0,1.473.839,1.473,1.948V-36.5h1.948v-4.577c0-2.439-1.394-3.31-2.74-3.31a2.832,2.832,0,0,0-2.471,1.33h-.048l-.1-1.156H29.236c.032.665.063,1.41.063,2.3ZM43.76-38.183a3.871,3.871,0,0,1-1.536.3,2.288,2.288,0,0,1-2.36-2.487,2.3,2.3,0,0,1,2.36-2.5,3.21,3.21,0,0,1,1.473.3l.348-1.473a5.2,5.2,0,0,0-1.885-.348,3.976,3.976,0,0,0-4.292,4.1,3.717,3.717,0,0,0,3.976,3.944,5.639,5.639,0,0,0,2.186-.4Zm1.045-6.035,2.835,7.08a.975.975,0,0,1,.1.38.727.727,0,0,1-.111.348,3.284,3.284,0,0,1-1.077,1.22,3.277,3.277,0,0,1-1.125.539l.443,1.631A4.11,4.11,0,0,0,47.91-34c.9-.792,1.616-2.075,2.677-4.958l1.932-5.259H50.444L49.24-40.1c-.158.491-.3,1.077-.412,1.5h-.048c-.111-.428-.285-1.014-.443-1.489l-1.378-4.134Z" transform="translate(37.486 57.002)" fill="#fff"/>
  <path id="Path_1172" data-name="Path 1172" d="M4.97-36.775H6.9v-4.039a4.26,4.26,0,0,0,.95.079,4.743,4.743,0,0,0,3.374-1.156,3.25,3.25,0,0,0,.9-2.408,3.015,3.015,0,0,0-1.045-2.36,4.782,4.782,0,0,0-3.136-.871,17.163,17.163,0,0,0-2.978.222ZM6.9-45.93a5.382,5.382,0,0,1,1.125-.1c1.346,0,2.17.618,2.17,1.806,0,1.235-.887,1.964-2.344,1.964a3.251,3.251,0,0,1-.95-.1ZM19.4-41.4c0-1.695-.713-3.263-3.184-3.263a5.554,5.554,0,0,0-2.788.681l.38,1.267a4.085,4.085,0,0,1,2.075-.57c1.362,0,1.568.839,1.568,1.346v.127c-2.851-.016-4.577.982-4.577,2.914A2.29,2.29,0,0,0,15.3-36.6a2.819,2.819,0,0,0,2.281-1.03h.048l.143.855h1.758a10.4,10.4,0,0,1-.127-1.853Zm-1.9,1.917a1.316,1.316,0,0,1-.048.428,1.6,1.6,0,0,1-1.536,1.061A1.023,1.023,0,0,1,14.806-39.1c0-1.172,1.315-1.457,2.693-1.441Zm3.96,2.708h1.948v-4.007a3.378,3.378,0,0,1,.048-.586A1.716,1.716,0,0,1,25.2-42.842a3.13,3.13,0,0,1,.586.048v-1.821a2.047,2.047,0,0,0-.459-.048A2.308,2.308,0,0,0,23.2-43.032h-.048l-.079-1.457H21.395c.048.681.063,1.441.063,2.487Zm6.32-9.155v1.441H26.685v1.457h1.093V-39.4a3.039,3.039,0,0,0,.618,2.17,2.23,2.23,0,0,0,1.679.634,4.275,4.275,0,0,0,1.41-.206l-.032-1.473a2.537,2.537,0,0,1-.76.079c-.744,0-1-.475-1-1.425v-3.405h1.853v-1.457H29.695v-1.98Zm5.243,9.155h1.948v-4.546a1.809,1.809,0,0,1,.1-.618,1.635,1.635,0,0,1,1.521-1.14c1.061,0,1.473.839,1.473,1.948v4.356h1.948v-4.577c0-2.439-1.394-3.31-2.74-3.31a2.832,2.832,0,0,0-2.471,1.33h-.048l-.1-1.156H32.957c.032.665.063,1.41.063,2.3Zm15.6-3.31a4.794,4.794,0,0,0,.063-.824c0-1.695-.824-3.754-3.326-3.754-2.471,0-3.77,2.012-3.77,4.15a3.649,3.649,0,0,0,3.976,3.9,6.927,6.927,0,0,0,2.693-.491l-.285-1.33a6.213,6.213,0,0,1-2.138.348,2.088,2.088,0,0,1-2.376-2Zm-5.163-1.362a1.906,1.906,0,0,1,1.79-1.885,1.658,1.658,0,0,1,1.6,1.885Zm6.795,4.672H52.2v-4.007a3.377,3.377,0,0,1,.048-.586,1.716,1.716,0,0,1,1.742-1.473,3.13,3.13,0,0,1,.586.048v-1.821a2.047,2.047,0,0,0-.459-.048A2.308,2.308,0,0,0,52-43.032h-.048l-.079-1.457H50.19c.048.681.063,1.441.063,2.487Zm5.164-.38a4.976,4.976,0,0,0,2.344.539c2.043,0,3.136-1.014,3.136-2.423-.016-1.14-.649-1.853-2.059-2.344-.982-.364-1.346-.586-1.346-1.077,0-.475.38-.824,1.077-.824a3.408,3.408,0,0,1,1.631.443l.4-1.362a4.45,4.45,0,0,0-2.059-.459c-1.79,0-2.914,1.045-2.914,2.408,0,.919.618,1.742,2.122,2.249.95.348,1.267.6,1.267,1.125,0,.507-.38.871-1.235.871a4.223,4.223,0,0,1-1.964-.57Z" transform="translate(34.778 71.784)" fill="#fff"/>
</svg>
