<svg id="shopify_partner_white" data-name="shopify partner white" xmlns="http://www.w3.org/2000/svg" width="99.754" height="35.183" viewBox="0 0 99.754 35.183">
  <path id="Path_1166" data-name="Path 1166" d="M60.581,39.734q-1.242-.621-1.242-1.242c0-.828.414-.828,1.242-.828a3.731,3.731,0,0,1,2.07.414l.828-2.07a6.008,6.008,0,0,0-2.483-.414c-2.484,0-4.553,1.656-4.553,3.725,0,1.242.828,2.07,2.07,2.9.828.414,1.242.828,1.242,1.656a1.322,1.322,0,0,1-1.242,1.242,5.247,5.247,0,0,1-2.483-.828l-.828,2.07a5.726,5.726,0,0,0,2.9.828c2.9,0,4.553-1.242,4.553-3.725,0-2.07-.828-3.311-2.07-3.725Zm11.176-4.553a5.11,5.11,0,0,0-3.311,1.656h0l1.242-6.209h-2.9l-2.9,15.729h2.9l.828-5.381c.414-2.07,1.656-3.311,2.483-3.311s.828.414.828,1.242v1.242l-1.242,6.209h2.9l1.242-6.209c0-.828.414-1.242.414-2.07,0-2.07-1.242-2.9-2.483-2.9Zm9.106,0c-3.725,0-6.209,3.311-6.209,7.037a3.911,3.911,0,0,0,4.139,4.139c3.725,0,6.209-3.311,6.209-7.037a3.9,3.9,0,0,0-4.139-4.139Zm-1.242,8.692c-1.242,0-1.656-.828-1.656-2.07,0-1.656.828-4.553,2.484-4.553A1.516,1.516,0,0,1,82.1,38.906c0,2.07-.828,4.967-2.484,4.967Zm13.245-8.692a4.47,4.47,0,0,0-3.311,1.656h0V35.181h-2.9L85.83,39.32,83.76,50.5h3.725l.828-4.553h0a4.281,4.281,0,0,0,1.656.414c3.725,0,5.795-3.725,5.795-7.451.414-2.07-.414-3.725-2.9-3.725Zm-2.9,8.692a1.521,1.521,0,0,1-1.242-.414l.414-2.9c.414-2.07,1.242-3.311,2.484-3.311.828,0,1.242.828,1.242,1.656,0,2.483-.828,4.967-2.9,4.967Zm10.762-13.245a1.656,1.656,0,1,0,0,3.311h0a1.781,1.781,0,0,0,1.656-1.656h0c-.414-1.242-.828-1.656-1.656-1.656ZM96.178,46.357h2.9l2.07-10.762h-2.9m11.176-.414h-2.07v-.414a1.894,1.894,0,0,1,1.656-2.07h.828l.414-2.483A2.419,2.419,0,0,0,108.6,29.8a5.982,5.982,0,0,0-2.9.828,3.765,3.765,0,0,0-1.656,3.311v.414H102.8l-.414,2.484h1.242l-1.656,8.692h2.9l1.656-8.692h2.07l.828-1.656Zm7.451,0-2.9,7.451h0l-.828-7.451h-3.311l1.656,9.934v.414a3.232,3.232,0,0,1-1.656,1.656,3.138,3.138,0,0,1-1.656.828l.828,2.483a6.671,6.671,0,0,0,2.9-1.656,20,20,0,0,0,4.139-6.209l3.725-7.864-2.9.414Z" transform="translate(-20.017 -22.643)" fill="#fff"/>
  <path id="Path_1179" data-name="Path 1179" d="M.372-.934h.871L1.785-3.8a5.047,5.047,0,0,0,.733.053,3.387,3.387,0,0,0,2.167-.68A2.483,2.483,0,0,0,5.546-6.3a1.656,1.656,0,0,0-.521-1.3,2.572,2.572,0,0,0-1.753-.552,7.037,7.037,0,0,0-1.551.159ZM2.454-7.362a3.246,3.246,0,0,1,.776-.074c.818,0,1.424.34,1.424,1.2A1.825,1.825,0,0,1,2.635-4.472a3.176,3.176,0,0,1-.712-.074ZM9.743-.934a11.638,11.638,0,0,1,.212-2.38L10.486-6a5.3,5.3,0,0,0-1.392-.191A3.585,3.585,0,0,0,5.535-2.517a1.518,1.518,0,0,0,1.477,1.7,2.223,2.223,0,0,0,2-1.445h.021A13.269,13.269,0,0,0,8.914-.934ZM9.19-3.866C8.935-2.5,8.064-1.54,7.331-1.54c-.68,0-.882-.563-.882-1.137A2.729,2.729,0,0,1,8.882-5.492a1.858,1.858,0,0,1,.606.074ZM11.931-.934,12.356-3.2c.223-1.2.9-2.125,1.668-2.125a1.492,1.492,0,0,1,.244.021l.17-.871a1.9,1.9,0,0,0-.255-.021,1.858,1.858,0,0,0-1.572,1.232h-.032c.053-.393.1-.754.138-1.116h-.776c-.053.478-.138,1.158-.255,1.827L11.06-.934Zm4.122-6.1-.181.956H15.14l-.127.691h.733l-.5,2.6a4.766,4.766,0,0,0-.117.956.956.956,0,0,0,1.084,1,2.052,2.052,0,0,0,.68-.1l.042-.691a1.6,1.6,0,0,1-.414.042.441.441,0,0,1-.489-.5,3.76,3.76,0,0,1,.106-.818l.467-2.5h1.232l.138-.691H16.744l.234-1.232Zm2.858,6.1.467-2.5A2.264,2.264,0,0,1,21.132-5.46c.606,0,.807.382.807.892a4.327,4.327,0,0,1-.064.659L21.312-.934h.871l.574-3.007a4.842,4.842,0,0,0,.1-.829,1.262,1.262,0,0,0-1.307-1.424,2.262,2.262,0,0,0-1.9,1.126h-.021l.127-1.009h-.786c-.053.425-.127.924-.244,1.5L18.04-.934Zm8.372-.946a2.877,2.877,0,0,1-1.381.351,1.155,1.155,0,0,1-1.147-.691,2.133,2.133,0,0,1-.106-.977c1.9.032,3.421-.319,3.421-1.668a1.338,1.338,0,0,0-1.509-1.328c-1.657,0-2.8,1.753-2.8,3.3A1.86,1.86,0,0,0,25.711-.817a3.672,3.672,0,0,0,1.7-.4ZM27.22-4.854c0,.807-1.084,1-2.475.977.223-.807.85-1.626,1.689-1.626C26.9-5.5,27.22-5.269,27.22-4.854ZM29.4-.934,29.823-3.2c.223-1.2.9-2.125,1.668-2.125a1.492,1.492,0,0,1,.244.021l.17-.871a1.9,1.9,0,0,0-.255-.021,1.858,1.858,0,0,0-1.572,1.232h-.032c.053-.393.1-.754.138-1.116h-.776c-.053.478-.138,1.158-.255,1.827L28.526-.934Z" transform="translate(48.667 36.001)" fill="#fff"/>
  <g id="Group_1138" data-name="Group 1138" transform="translate(0 0)">
    <path id="Path_1167" data-name="Path 1167" d="M74.019,34.323h0c-.414-.414-3.311-.414-3.311-.414l-2.07-2.07c0-.414-.414,0-.828,0a3.2,3.2,0,0,0-1.242.414c-.828-1.656-1.656-3.311-3.725-3.311h0A2.218,2.218,0,0,0,61.187,27.7c-4.553,0-6.623,5.795-7.451,8.692l-3.311.828c-.828.414-.828.414-1.242,1.242L46.7,59.158l20.282,3.725L77.744,60.4S74.019,34.737,74.019,34.323Zm-11.59-4.139a7.044,7.044,0,0,1,.414,2.9h0l-3.311,1.242c.414-2.483,1.656-3.725,2.9-4.139Zm-1.242-1.242H61.6c-1.656.828-2.9,2.484-3.725,5.795l-2.9.828C55.806,33.081,57.876,28.942,61.187,28.942Zm2.07,11.176-1.242,4.139c-.828-.414-1.656-.414-2.483-.828-2.07,0-2.07,1.242-2.07,1.656,0,1.656,4.967,2.484,4.967,6.623,0,3.311-2.07,5.381-4.967,5.381a8.12,8.12,0,0,1-5.381-2.07l.828-2.9a5.781,5.781,0,0,0,3.311,1.656,1.1,1.1,0,0,0,1.242-1.242h0c0-2.483-3.725-2.483-3.725-6.209A6.638,6.638,0,0,1,60.773,39.7a6.008,6.008,0,0,1,2.484.414Zm.828-7.037h0a9.114,9.114,0,0,0-.414-3.311c.828,0,1.656,1.242,2.07,2.484C65.326,32.667,64.5,32.667,64.085,33.081Z" transform="translate(-46.7 -27.7)" fill="#fff"/>
    <path id="Path_1168" data-name="Path 1168" d="M58.537,31.184l-2.9-.414L53.57,28.7h-.414L51.5,59.744,62.262,57.26,58.537,31.184Z" transform="translate(-31.632 -24.561)" fill="#fff"/>
  </g>
</svg>
