<svg id="multitasking" xmlns="http://www.w3.org/2000/svg" width="60" height="60" viewBox="0 0 60 60">
  <path id="Path_1182" data-name="Path 1182" d="M54,52H48.78a1,1,0,0,1-1-.886L47.17,45.9A12.29,12.29,0,0,0,45.3,40.691l5.278-8.3a14.861,14.861,0,0,0,1.672-3.658l2.52-8.419a4.1,4.1,0,0,0-2.443-5.09,3.943,3.943,0,0,0-3.138.2,4.021,4.021,0,0,0-2.025,2.427l-2.491,8.275a8.755,8.755,0,0,1-1.025,2.247L38.991,35.7a12.3,12.3,0,0,0-2.047-.528A9.964,9.964,0,0,0,40,28V23a10,10,0,0,0-20,0v5a9.89,9.89,0,0,0,2.931,7.065c.039.04.082.073.122.112a12.3,12.3,0,0,0-2.047.528l-4.664-7.334a8.744,8.744,0,0,1-1.024-2.249l-2.49-8.268A4.019,4.019,0,0,0,10.8,15.425a3.944,3.944,0,0,0-3.139-.2,4.093,4.093,0,0,0-2.442,5.088l2.52,8.42A14.841,14.841,0,0,0,9.416,32.4l5.276,8.294A12.29,12.29,0,0,0,12.827,45.9l-.61,5.209a1,1,0,0,1-1,.888H6a4,4,0,0,0,0,8h5.63A10.04,10.04,0,0,0,20,55.46V58a2,2,0,0,0,2,2H38a2,2,0,0,0,2-2V55.46A10.04,10.04,0,0,0,48.37,60H54a4,4,0,0,0,0-8ZM50.1,17.208a1.983,1.983,0,0,1,1.562-.1,2.128,2.128,0,0,1,1.2,2.632l-.623,2.083-3.83-1.146.679-2.254A1.989,1.989,0,0,1,50.1,17.208ZM45.34,29.449A10.739,10.739,0,0,0,46.6,26.7l1.235-4.1,3.832,1.147-1.323,4.421a12.762,12.762,0,0,1-1.446,3.16L44.01,39.012a12.393,12.393,0,0,0-3.168-2.478ZM22,28V23a8,8,0,0,1,16,0v5a8,8,0,0,1-16,0Zm6.8,14h2.41L33,49.725a.109.109,0,0,1-.046.115l-2.869,2.134a.14.14,0,0,1-.163,0L27.048,49.84A.108.108,0,0,1,27,49.73Zm-.3-4.124A10.2,10.2,0,0,0,30,38a10.018,10.018,0,0,0,1.509-.126L31.153,40H28.847ZM8.335,17.112a1.986,1.986,0,0,1,2.577,1.316l.678,2.252L7.761,21.825l-.623-2.083a2.126,2.126,0,0,1,1.2-2.63ZM11.1,31.326a12.8,12.8,0,0,1-1.447-3.163L8.335,23.742,12.167,22.6,13.4,26.7a10.727,10.727,0,0,0,1.255,2.753l4.5,7.083a12.393,12.393,0,0,0-3.168,2.478ZM8,58H6a2,2,0,0,1,0-4H8Zm42,0H48.37a8.035,8.035,0,0,1-7.983-7.4C40.176,47.8,40,45.91,40,45.91a.984.984,0,0,0-1.043-.9A1,1,0,0,0,38,46V58H22V46a1,1,0,1,0-2-.1s-.181,1.888-.392,4.691A8.035,8.035,0,0,1,11.63,58H10V54h1.22a3.007,3.007,0,0,0,2.98-2.653l.61-5.211A10.348,10.348,0,0,1,25.09,37h.566c.234.113.47.22.713.315l.612,3.653-1.929,8.317a2.114,2.114,0,0,0,.8,2.16l2.872,2.134a2.149,2.149,0,0,0,2.547,0l2.87-2.134a2.116,2.116,0,0,0,.8-2.166l-1.928-8.312.612-3.66c.238-.093.47-.2.7-.307h.58a10.348,10.348,0,0,1,10.277,9.136l.61,5.213A3.007,3.007,0,0,0,48.78,54H50Zm5.413-.587A1.986,1.986,0,0,1,54,58H52V54h2a2,2,0,0,1,1.413,3.413Z" fill="#fff"/>
  <path id="Path_1183" data-name="Path 1183" d="M7,50a3,3,0,0,0,3-3V37a3,3,0,0,0-3-3H3a3,3,0,0,0-3,3V47a3,3,0,0,0,3,3ZM2,37a1,1,0,0,1,1-1H7a1,1,0,0,1,1,1v1H2Zm0,3H8v4H2Zm0,7V46H8v1a1,1,0,0,1-1,1H3A1,1,0,0,1,2,47Z" fill="#fff"/>
  <path id="Path_1184" data-name="Path 1184" d="M58,36H51a2,2,0,0,0-2,2V48a2,2,0,0,0,2,2h7a2,2,0,0,0,2-2V38A2,2,0,0,0,58,36ZM51,48V38h7V48Z" fill="#fff"/>
  <path id="Path_1185" data-name="Path 1185" d="M2,11h8a2,2,0,0,0,2-2V2a2,2,0,0,0-2-2H7.414A2.015,2.015,0,0,0,6,.586L4.586,2H2A2,2,0,0,0,0,4V9A2,2,0,0,0,2,11ZM2,4H4.586A2.015,2.015,0,0,0,6,3.414L7.414,2H10V9H2Z" fill="#fff"/>
  <path id="Path_1186" data-name="Path 1186" d="M53,14a7,7,0,1,0-7-7,7,7,0,0,0,7,7ZM53,2a5,5,0,1,1-5,5,5,5,0,0,1,5-5Z" fill="#fff"/>
  <path id="Path_1187" data-name="Path 1187" d="M55,40H54a1,1,0,0,0,0,2h1a1,1,0,0,0,0-2Z" fill="#fff"/>
  <path id="Path_1188" data-name="Path 1188" d="M55,44H54a1,1,0,0,0,0,2h1a1,1,0,0,0,0-2Z" fill="#fff"/>
  <path id="Path_1189" data-name="Path 1189" d="M52.578,7.906l1,.466a1,1,0,0,0,.844-1.812L54,6.362V5a1,1,0,0,0-2,0V7a1,1,0,0,0,.578.906Z" fill="#fff"/>
</svg>
