<svg xmlns="http://www.w3.org/2000/svg" width="62.144" height="60" viewBox="0 0 62.144 60">
  <path id="tracking-delivery" d="M56.65,9.8a6.5,6.5,0,0,0-6.495,6.495c.232,3.266,2.912,8.3,4.326,11.271a3.394,3.394,0,0,0-1.206,2.023H32.9l-2.047-1.182a.675.675,0,0,0-.646,0l-2.047,1.182h-14.9A6.417,6.417,0,0,0,6.849,36v6.933a6.416,6.416,0,0,0,.719,2.937A6.511,6.511,0,0,0,1,52.375c.232,3.266,2.937,8.347,4.338,11.308A3.434,3.434,0,1,0,10.858,67H50.874a6.417,6.417,0,0,0,6.409-6.409V54.471a6.417,6.417,0,0,0-6.409-6.409H43.295V35.974a.66.66,0,0,0-.317-.561c-2-1.121-5.885-3.461-7.859-4.533H53.274a3.437,3.437,0,1,0,5.544-3.3c1.621-3.387,4.094-8.079,4.326-11.271A6.5,6.5,0,0,0,56.65,9.8ZM30.525,29.711,33.8,31.6,23.055,37.923l-3.387-1.95ZM22.763,45.3,25.5,46.953a.644.644,0,0,0,.646.012.631.631,0,0,0,.329-.561v-5.02l3.412,1.962V55.872L19.046,49.609V37.095l3.412,1.962v5.678a.623.623,0,0,0,.3.561Zm2.425-.037-1.45-.877V39.8l1.45.841ZM8.141,36a5.125,5.125,0,0,1,5.118-5.118H25.931l-7.859,4.533a.645.645,0,0,0-.317.561V48.061c-.78-.037-4.838.1-5.52-.11a6.548,6.548,0,0,0-2.973-1.828,5.144,5.144,0,0,1-1.121-3.193ZM3.1,55.543a10.373,10.373,0,0,1-.816-3.168,5.2,5.2,0,1,1,10.406,0c-.341,3.363-3.448,9.175-5.2,12.673a92.152,92.152,0,0,1-4.387-9.5Zm4.4,12.965a2.158,2.158,0,0,1-1.548-3.643c.256.512.524,1.011.768,1.462.28.5.28.682.78.731a.74.74,0,0,0,.67-.536c.244-.451.573-1.072.877-1.669a2.168,2.168,0,0,1-1.548,3.656ZM43.307,49.987v-.634h7.579A5.125,5.125,0,0,1,56,54.471v6.117a5.125,5.125,0,0,1-5.118,5.118H10.858a3.423,3.423,0,0,0-1.231-2.035,81.814,81.814,0,0,0,3.4-7.543c1.084-3,1.353-4.387.195-6.787h4.521c.012.39-.11.987.317,1.194L30.2,57.541a.675.675,0,0,0,.646,0l12.136-7.006a.612.612,0,0,0,.329-.548Zm-1.292-.366L31.171,55.884V43.358l10.845-6.263Zm-.634-13.647L30.537,42.237l-3.424-1.974L37.958,34Zm-4.716-2.717L25.821,39.52l-1.462-.841,10.747-6.324Zm19.984-.865a2.164,2.164,0,0,1-1.56-3.631c.6,1.158,1,1.9,1,1.9a.688.688,0,0,0,.573.341.677.677,0,0,0,.573-.341s.4-.743.987-1.9a2.171,2.171,0,0,1-1.572,3.631Zm4.338-12.77a93.616,93.616,0,0,1-4.338,9.346c-1.657-3.351-4.777-9.029-5.2-12.673a5.2,5.2,0,0,1,10.406,0A10.714,10.714,0,0,1,60.988,19.621Zm-4.338-6.19a2.866,2.866,0,1,0,2.193,4.716A2.878,2.878,0,0,0,56.65,13.431Zm1.219,3.875a1.58,1.58,0,1,1-1.206-2.6A1.591,1.591,0,0,1,57.868,17.306ZM7.495,55.238a2.864,2.864,0,0,0,0-5.727A2.864,2.864,0,0,0,7.495,55.238ZM6.227,53.313a1.581,1.581,0,1,1,2.851-.938A1.586,1.586,0,0,1,6.227,53.313Z" transform="translate(-1 -9.8)" fill="#fff"/>
</svg>
